0
SECTION
2
HEADER
9
$ACADVER
1
AC1008
9
$UCSORG
10
0.0
20
0.0
30
0.0
9
$UCSXDIR
10
1.0
20
0.0
30
0.0
9
$TILEMODE
70
1
9
$UCSYDIR
10
0.0
20
1.0
30
0.0
9
$EXTMIN
10
0.000000
20
-100.000000
30
0.000000
9
$EXTMAX
10
100.000000
20
0.000000
30
50.000000
0
ENDSEC
0
SECTION
2
TABLES
0
TABLE
2
LTYPE
70
1
0
LTYPE
2
CONTINUOUS
70
64
3
Solid line
72
65
73
0
40
0.0
0
ENDTAB
0
TABLE
2
LAYER
70
1
0
LAYER
2
Box01
70
0
62
11
6
CONTINUOUS
0
ENDTAB
0
TABLE
2
STYLE
70
1
0
STYLE
2
STANDARD
70
0
40
0.0
41
1.0
50
0.0
71
0
42
0.2
3
txt
4

0
ENDTAB
0
TABLE
2
UCS
70
0
0
ENDTAB
0
ENDSEC
0
SECTION
2
ENTITIES
0
POLYLINE
8
Box01
66
1
70
64
71
26
72
12
62
11
0
VERTEX
8
Box01
10
0.000000
20
-100.000000
30
0.000000
70
192
0
VERTEX
8
Box01
10
100.000000
20
-100.000000
30
0.000000
70
192
0
VERTEX
8
Box01
10
0.000000
20
0.000000
30
0.000000
70
192
0
VERTEX
8
Box01
10
100.000000
20
0.000000
30
0.000000
70
192
0
VERTEX
8
Box01
10
0.000000
20
-100.000000
30
50.000000
70
192
0
VERTEX
8
Box01
10
100.000000
20
-100.000000
30
50.000000
70
192
0
VERTEX
8
Box01
10
0.000000
20
0.000000
30
50.000000
70
192
0
VERTEX
8
Box01
10
100.000000
20
0.000000
30
50.000000
70
192
0
VERTEX
8
Box01
10
0.000000
20
-100.000000
30
0.000000
70
192
0
VERTEX
8
Box01
10
100.000000
20
-100.000000
30
0.000000
70
192
0
VERTEX
8
Box01
10
100.000000
20
-100.000000
30
50.000000
70
192
0
VERTEX
8
Box01
10
100.000000
20
-100.000000
30
50.000000
70
192
0
VERTEX
8
Box01
10
0.000000
20
-100.000000
30
50.000000
70
192
0
VERTEX
8
Box01
10
0.000000
20
-100.000000
30
0.000000
70
192
0
VERTEX
8
Box01
10
100.000000
20
0.000000
30
0.000000
70
192
0
VERTEX
8
Box01
10
100.000000
20
-100.000000
30
50.000000
70
192
0
VERTEX
8
Box01
10
100.000000
20
0.000000
30
0.000000
70
192
0
VERTEX
8
Box01
10
0.000000
20
0.000000
30
0.000000
70
192
0
VERTEX
8
Box01
10
0.000000
20
0.000000
30
50.000000
70
192
0
VERTEX
8
Box01
10
0.000000
20
0.000000
30
50.000000
70
192
0
VERTEX
8
Box01
10
100.000000
20
0.000000
30
50.000000
70
192
0
VERTEX
8
Box01
10
100.000000
20
0.000000
30
0.000000
70
192
0
VERTEX
8
Box01
10
0.000000
20
0.000000
30
0.000000
70
192
0
VERTEX
8
Box01
10
0.000000
20
-100.000000
30
50.000000
70
192
0
VERTEX
8
Box01
10
0.000000
20
-100.000000
30
50.000000
70
192
0
VERTEX
8
Box01
10
0.000000
20
0.000000
30
0.000000
70
192
0
VERTEX
8
Box01
10
0
20
0
30
0
70
128
71
1
72
3
73
-4
0
VERTEX
8
Box01
10
0
20
0
30
0
70
128
71
4
72
2
73
-1
0
VERTEX
8
Box01
10
0
20
0
30
0
70
128
71
5
72
6
73
-8
0
VERTEX
8
Box01
10
0
20
0
30
0
70
128
71
8
72
7
73
-5
0
VERTEX
8
Box01
10
0
20
0
30
0
70
128
71
9
72
10
73
-11
0
VERTEX
8
Box01
10
0
20
0
30
0
70
128
71
12
72
13
73
-14
0
VERTEX
8
Box01
10
0
20
0
30
0
70
128
71
2
72
15
73
-8
0
VERTEX
8
Box01
10
0
20
0
30
0
70
128
71
8
72
16
73
-2
0
VERTEX
8
Box01
10
0
20
0
30
0
70
128
71
17
72
18
73
-19
0
VERTEX
8
Box01
10
0
20
0
30
0
70
128
71
20
72
21
73
-22
0
VERTEX
8
Box01
10
0
20
0
30
0
70
128
71
23
72
1
73
-24
0
VERTEX
8
Box01
10
0
20
0
30
0
70
128
71
25
72
7
73
-26
0
SEQEND
8
Box01
0
ENDSEC
0
EOF
