<?xml version="1.0" encoding="UTF-8" standalone="no"?>
<!-- Created with Inkscape (http://www.inkscape.org/) -->
<svg
   xmlns:dc="http://purl.org/dc/elements/1.1/"
   xmlns:cc="http://web.resource.org/cc/"
   xmlns:rdf="http://www.w3.org/1999/02/22-rdf-syntax-ns#"
   xmlns:svg="http://www.w3.org/2000/svg"
   xmlns="http://www.w3.org/2000/svg"
   xmlns:sodipodi="http://sodipodi.sourceforge.net/DTD/sodipodi-0.dtd"
   xmlns:inkscape="http://www.inkscape.org/namespaces/inkscape"
   width="131.10236"
   height="184.25197"
   id="svg4589"
   sodipodi:version="0.32"
   inkscape:version="0.44"
   version="1.0"
   sodipodi:docbase="C:\csp\trunk2\csp\data\ui\themes\default\images"
   sodipodi:docname="csplogo.svg">
  <defs
     id="defs4591" />
  <sodipodi:namedview
     id="base"
     pagecolor="#ffffff"
     bordercolor="#666666"
     borderopacity="1.0"
     gridtolerance="10000"
     guidetolerance="10"
     objecttolerance="10"
     inkscape:pageopacity="0.0"
     inkscape:pageshadow="2"
     inkscape:zoom="3.0447835"
     inkscape:cx="73.610826"
     inkscape:cy="91.331951"
     inkscape:document-units="px"
     inkscape:current-layer="layer1"
     width="131.10236px"
     height="184.25197px"
     inkscape:window-width="1280"
     inkscape:window-height="968"
     inkscape:window-x="-4"
     inkscape:window-y="-4" />
  <metadata
     id="metadata4594">
    <rdf:RDF>
      <cc:Work
         rdf:about="">
        <dc:format>image/svg+xml</dc:format>
        <dc:type
           rdf:resource="http://purl.org/dc/dcmitype/StillImage" />
      </cc:Work>
    </rdf:RDF>
  </metadata>
  <g
     inkscape:label="Layer 1"
     inkscape:groupmode="layer"
     id="layer1">
    <g
       id="g5153"
       transform="translate(-215.7022,-220.2728)">
      <path
         style="fill:#fdfdfd"
         d="M 205.71428,295.21933 L 205.71428,215.21933 L 285.71428,215.21933 L 365.71428,215.21933 L 365.71428,295.21933 L 365.71428,375.21933 L 285.71428,375.21933 L 205.71428,375.21933 L 205.71428,295.21933 z M 281.4312,364.84404 C 285.51194,363.08727 285.80257,363.08823 290.4312,364.87399 C 294.63149,366.49449 298.32131,366.71933 320.71428,366.71933 C 344.56059,366.71933 346.43896,366.58733 349.6789,364.68395 C 355.14202,361.47448 357.21749,356.97326 357.04004,348.71933 C 356.95727,344.86933 356.90548,337.66933 356.92495,332.71933 C 357.3092,235.00413 357.34446,236.96923 355.13056,232.71933 C 353.8021,230.16917 351.44612,227.81318 348.63056,226.21933 C 344.40064,223.82483 343.3703,223.70422 324.21428,223.36132 C 305.04375,223.01816 289.46569,224.18982 285.52136,226.27151 C 284.39901,226.86385 282.54535,226.59575 280.02136,225.47602 C 276.98026,224.12688 272.1903,223.70821 256.21428,223.39518 C 235.27424,222.98489 220.63203,224.31591 217.59973,226.90538 C 214.23756,229.77655 214.20781,230.79877 214.51288,332.96933 C 214.52725,337.78183 214.48778,344.86933 214.42518,348.71933 C 214.25666,359.08329 217.62452,364.19956 225.98933,366.28694 C 227.76305,366.72956 240.01428,366.99444 253.21428,366.87557 C 273.86884,366.68957 277.80209,366.40638 281.4312,364.84404 z M 279.71428,332.57946 C 276.69768,330.99977 272.66121,330.00931 267.46934,329.57484 C 260.16961,328.96397 259.87439,328.8489 262.33365,327.57302 C 263.76873,326.82849 265.56646,326.21933 266.32859,326.21933 C 268.09886,326.21933 268.07097,325.69334 266.1448,322.75363 C 264.59414,320.38703 264.55215,320.38146 262.6448,322.28881 C 261.45967,323.47394 259.33819,324.21933 257.1503,324.21933 L 253.58631,324.21933 L 255.70008,320.46933 C 259.72619,313.3267 261.3579,311.67868 263.02988,313.06629 C 264.27119,314.09648 264.81253,313.91714 266.1272,312.04019 C 267.61513,309.91588 267.59014,309.71755 265.74879,309.03639 C 263.96013,308.37472 264.66147,306.93492 273.31023,293.51321 C 284.74899,275.76178 285.18305,275.25219 287.1586,277.25504 C 288.62176,278.73842 305.71428,305.03501 305.71428,305.80267 C 305.71428,306.03183 303.01428,306.21933 299.71428,306.21933 L 293.71428,306.21933 L 293.71428,317.21933 L 293.71428,328.21933 L 296.99071,328.21933 C 300.19702,328.21933 300.25916,328.13574 299.8946,324.313 L 299.52207,320.40666 L 305.36818,320.00262 C 308.58353,319.7804 311.97359,319.25093 312.90164,318.82601 C 314.21937,318.22267 315.06551,318.98748 316.76431,322.3174 C 318.84705,326.39991 318.86286,326.63751 317.13583,327.90036 C 316.14373,328.62579 312.83053,329.2384 309.77315,329.2617 C 301.09152,329.32788 288.11482,331.55377 286.06908,333.32765 C 284.35264,334.816 283.87861,334.76019 279.71428,332.57946 z M 285.58617,328.11415 C 288.97746,326.93193 290.71428,324.61903 290.71428,321.28507 C 290.71428,317.81332 287.32673,315.43976 281.29651,314.68634 C 275.29811,313.93689 273.7692,311.92433 278.32887,310.77993 C 280.01814,310.35595 282.28866,310.78927 284.74453,312.00433 L 288.5456,313.88495 L 289.66738,311.42292 C 290.97079,308.56224 291.16417,308.83717 286.81506,307.36779 C 279.66535,304.9522 272.15002,306.63504 271.0819,310.89077 C 269.60614,316.77066 273.38532,320.21933 281.30449,320.21933 C 283.11495,320.21933 284.90546,320.71964 285.28338,321.33113 C 287.11775,324.29921 277.02181,325.384 274.16372,322.52591 C 272.5725,320.93469 272.38715,320.94623 271.09229,322.71704 C 269.77265,324.52177 269.08947,328.17747 270.29763,326.96932 C 270.61847,326.64847 272.30597,327.00586 274.04763,327.76351 C 277.9387,329.45618 281.4319,329.56233 285.58617,328.11415 z M 299.71428,313.21933 C 299.71428,311.486 300.38095,311.21933 304.71428,311.21933 C 309.04761,311.21933 309.71428,311.486 309.71428,313.21933 C 309.71428,314.95266 309.04761,315.21933 304.71428,315.21933 C 300.38095,315.21933 299.71428,314.95266 299.71428,313.21933 z "
         id="path5193" />
      <path
         style="fill:#f4f4f4"
         d="M 225.98933,366.28694 C 221.35524,365.13054 217.99628,362.66534 216.12556,359.04776 C 214.05956,355.05256 213.26778,345.9179 214.53688,340.71933 C 215.44873,336.98416 215.52003,337.22435 215.61383,344.34721 C 215.72562,352.8359 217.26505,357.52503 221.12856,361.14514 C 223.42489,363.2968 225.04519,363.66678 235.46587,364.41892 C 241.9275,364.8853 253.89725,364.97138 262.06532,364.61019 C 274.95092,364.04041 277.49854,363.64395 281.31532,361.61455 L 285.71428,359.2756 L 290.11324,361.61455 C 293.93002,363.64395 296.47764,364.04041 309.36324,364.61019 C 317.53131,364.97138 329.52834,364.88347 336.02331,364.41485 C 347.47862,363.58834 347.92791,363.46729 351.02331,360.37361 C 354.14809,357.25056 354.21187,357.00327 354.09806,348.45187 C 354.03414,343.64897 353.8333,337.24433 353.65175,334.21933 C 353.4702,331.19433 353.8461,325.34433 354.48709,321.21933 C 355.87422,312.29269 356.08038,252.06907 354.75892,241.81143 C 353.73089,233.83143 351.7291,230.55475 346.14975,227.71933 C 342.62816,225.92966 339.6377,225.66675 317.71428,225.21933 C 299.17201,224.84092 294.56935,224.51433 298.78674,223.87629 C 301.85159,223.41262 313.32659,223.18762 324.28674,223.37629 C 343.37959,223.70496 344.39926,223.82405 348.63056,226.21933 C 351.44612,227.81318 353.8021,230.16917 355.13056,232.71933 C 357.34446,236.96923 357.3092,235.00413 356.92495,332.71933 C 356.90548,337.66933 356.95727,344.86933 357.04004,348.71933 C 357.21749,356.97326 355.14202,361.47448 349.6789,364.68395 C 346.43896,366.58733 344.56059,366.71933 320.71428,366.71933 C 298.32131,366.71933 294.63149,366.49449 290.4312,364.87399 C 285.80257,363.08823 285.51194,363.08727 281.4312,364.84404 C 277.80209,366.40638 273.86884,366.68957 253.21428,366.87557 C 240.01428,366.99444 227.76305,366.72956 225.98933,366.28694 z M 282.58673,337.55764 C 279.59249,333.93235 271.16628,331.31167 260.23112,330.6047 C 254.41019,330.22836 249.43248,329.57239 249.16957,329.14698 C 248.68759,328.36713 257.92328,328.65151 269.46523,329.77192 C 273.06442,330.12131 277.58638,331.37312 280.12478,332.7228 C 282.54952,334.01205 284.73967,334.86061 284.99178,334.60849 C 285.2439,334.35638 285.23213,335.29068 284.96565,336.68472 C 284.39237,339.68363 284.35421,339.69763 282.58673,337.55764 z M 214.78462,326.11173 C 213.53238,320.27271 213.46973,241.10544 214.71428,237.21933 C 215.15463,235.84433 215.56465,254.06933 215.62542,277.71933 C 215.71279,311.71531 216.03273,321.69732 217.15336,325.38987 C 218.34249,329.30813 218.35207,330.14434 217.21288,330.58149 C 216.25369,330.94957 215.54068,329.63712 214.78462,326.11173 z M 295.98511,330.61516 C 296.31741,330.28287 297.17991,330.24735 297.90178,330.53622 C 298.69951,330.85544 298.46256,331.0924 297.29761,331.14038 C 296.24345,331.1838 295.65282,330.94746 295.98511,330.61516 z M 308.91802,329.30371 C 318.85413,328.54999 319.70972,327.69443 316.41767,321.80431 C 313.12522,315.91348 314.70719,314.87554 318.48373,320.44875 C 322.32078,326.11127 323.0831,328.36839 321.49815,329.37407 C 320.79202,329.82212 315.93928,330.12107 310.71428,330.0384 L 301.21428,329.88809 L 308.91802,329.30371 z M 294.07951,317.71933 C 294.07691,312.21933 294.24271,309.84175 294.44795,312.43581 C 294.6532,315.02987 294.65533,319.52987 294.45268,322.43581 C 294.25004,325.34175 294.08211,323.21933 294.07951,317.71933 z M 252.27893,323.32393 C 251.4452,321.97494 258.60263,311.21933 260.33405,311.21933 C 261.16265,311.21933 260.15057,313.57121 257.67122,317.40725 C 252.88146,324.81794 253.07263,324.60817 252.27893,323.32393 z M 262.34762,307.43507 C 262.06995,306.98579 265.68756,300.79095 270.38677,293.66876 C 275.08597,286.54658 280.23854,278.13183 281.83692,274.96933 C 283.4353,271.80683 285.18012,269.21933 285.71428,269.21933 C 286.24845,269.21933 287.99218,271.80683 289.58925,274.96933 C 291.18632,278.13183 296.1428,286.2423 300.60365,292.99261 C 305.06449,299.74291 308.71428,305.48041 308.71428,305.74261 C 308.71428,306.00481 308.14504,306.21933 307.44929,306.21933 C 306.75355,306.21933 302.14105,299.88191 297.19929,292.13618 C 292.25754,284.39045 287.62724,277.56499 286.90976,276.96848 C 285.09656,275.46104 283.6674,277.19275 273.29354,293.4672 C 264.39652,307.42478 263.24747,308.89107 262.34762,307.43507 z M 219.35376,229.52548 C 218.22758,228.39929 218.66787,227.21933 220.21428,227.21933 C 221.03928,227.21933 221.71428,227.64277 221.71428,228.16031 C 221.71428,229.42129 220.15269,230.32441 219.35376,229.52548 z M 277.71428,227.5349 C 272.58341,225.43206 270.6371,225.27197 248.71428,225.1496 C 231.37033,225.05279 226.26212,224.76724 229.21428,224.05953 C 231.41428,223.53214 242.88928,223.25145 254.71428,223.43579 C 272.42486,223.71187 276.89973,224.07607 280.10331,225.5022 C 283.22568,226.89217 284.30991,226.99215 285.60331,226.00936 C 286.48934,225.33611 286.88068,225.17903 286.47296,225.66029 C 286.06523,226.14155 286.23283,227.13922 286.8454,227.87732 C 287.66463,228.86444 287.66234,229.21933 286.83673,229.21933 C 286.21938,229.21933 285.69997,228.65683 285.68248,227.96933 C 285.66078,227.11653 285.26358,227.20704 284.43248,228.25417 C 283.34812,229.62039 282.61003,229.54137 277.71428,227.5349 z "
         id="path5191" />
      <path
         style="fill:#ebebeb"
         d="M 233.01801,364.36002 C 224.86007,363.77138 223.50323,363.39131 221.00081,360.99385 C 217.96041,358.08096 215.0436,352.00693 217.07971,352.82847 C 217.70372,353.08025 218.88928,354.73369 219.71428,356.50279 C 222.6425,362.78196 225.26521,363.30308 252.38547,362.99442 L 276.55666,362.71933 L 281.13547,359.48994 L 285.71428,356.26055 L 290.29309,359.48994 L 294.8719,362.71933 L 319.04309,362.99442 C 340.55605,363.23926 343.59919,363.0743 346.71428,361.49442 C 353.16205,358.22431 355.58248,348.14866 352.18544,338.71933 C 350.37949,333.70646 350.37949,331.7322 352.18544,326.71933 C 353.35361,323.4768 353.62412,314.86056 353.61394,281.21933 C 353.60025,235.92267 353.41353,234.21846 348.08486,230.75396 C 340.97432,226.13095 340.96027,226.11818 343.71428,226.78177 C 347.73057,227.74951 351.06813,230.56082 353.21428,234.78386 C 355.08346,238.4619 355.23672,241.08137 355.55736,274.8295 C 355.80224,300.60392 355.53277,313.48419 354.61591,319.8295 C 353.90943,324.71891 353.47774,331.19433 353.65662,334.21933 C 353.83549,337.24433 354.03414,343.64897 354.09806,348.45187 C 354.21187,357.00327 354.14809,357.25056 351.02331,360.37361 C 347.92791,363.46729 347.47862,363.58834 336.02331,364.41485 C 329.52834,364.88347 317.53131,364.97138 309.36324,364.61019 C 296.49832,364.04132 293.92641,363.64203 290.13203,361.62454 L 285.75187,359.29559 L 280.98307,361.71186 C 276.63571,363.9146 274.71196,364.1677 259.21428,364.57586 C 249.86428,364.8221 238.07596,364.72498 233.01801,364.36002 z M 282.39669,340.13807 C 281.48119,338.74084 278.92813,336.58374 276.72321,335.34451 C 271.68071,332.51046 271.55088,331.70991 276.46428,333.74798 C 281.00795,335.63268 285.11681,339.51174 284.50707,341.34095 C 284.2058,342.24477 283.52149,341.85473 282.39669,340.13807 z M 259.46428,330.55705 C 260.15178,330.27964 261.27678,330.27964 261.96428,330.55705 C 262.65178,330.83446 262.08928,331.06144 260.71428,331.06144 C 259.33928,331.06144 258.77678,330.83446 259.46428,330.55705 z M 298.98511,330.61516 C 299.31741,330.28287 300.17991,330.24735 300.90178,330.53622 C 301.69951,330.85544 301.46256,331.0924 300.29761,331.14038 C 299.24345,331.1838 298.65282,330.94746 298.98511,330.61516 z M 218.41155,329.46933 C 217.32795,327.5378 216.63396,322.78054 217.57276,323.71933 C 218.71936,324.86594 220.20921,330.21933 219.38171,330.21933 C 219.07954,330.21933 218.64297,329.88183 218.41155,329.46933 z M 246.71428,328.71933 C 246.71428,327.89433 247.31428,327.21933 248.04761,327.21933 C 248.78095,327.21933 249.38095,327.89433 249.38095,328.71933 C 249.38095,329.54433 248.78095,330.21933 248.04761,330.21933 C 247.31428,330.21933 246.71428,329.54433 246.71428,328.71933 z M 321.49815,329.37407 C 323.07655,328.37254 322.3214,326.11265 318.54592,320.53915 C 316.98852,318.24006 315.71621,315.76506 315.71856,315.03915 C 315.72293,313.6929 320.56679,320.38973 323.35876,325.60203 C 324.63732,327.98895 324.67168,328.63126 323.55858,329.33672 C 322.81922,329.80531 321.76428,330.1887 321.21428,330.1887 C 320.66428,330.1887 320.79202,329.82212 321.49815,329.37407 z M 251.09701,322.77433 C 250.79204,321.97958 252.00409,319.16708 253.79045,316.52433 C 257.83122,310.54641 257.62136,310.79308 258.18612,311.35783 C 258.44563,311.61734 257.07606,314.17865 255.14263,317.04963 C 253.2092,319.9206 251.89843,322.70828 252.22981,323.24446 C 252.56119,323.78064 252.56663,324.21933 252.24191,324.21933 C 251.91719,324.21933 251.40199,323.56908 251.09701,322.77433 z M 301.46428,315.5136 C 302.70178,315.27524 304.72678,315.27524 305.96428,315.5136 C 307.20178,315.75195 306.18928,315.94697 303.71428,315.94697 C 301.23928,315.94697 300.22678,315.75195 301.46428,315.5136 z M 301.46428,310.5136 C 302.70178,310.27524 304.72678,310.27524 305.96428,310.5136 C 307.20178,310.75195 306.18928,310.94697 303.71428,310.94697 C 301.23928,310.94697 300.22678,310.75195 301.46428,310.5136 z M 260.98297,305.96933 C 261.24843,305.28183 265.55376,298.45549 270.55037,290.79969 C 275.85888,282.66599 280.74642,273.83305 282.30865,269.54969 C 284.75588,262.83979 286.71428,260.18659 286.71428,263.58102 C 286.71428,266.72867 293.56834,279.6594 302.26047,292.91012 C 307.3803,300.71505 311.03939,306.89334 310.39177,306.63965 C 308.92313,306.06433 292.87685,281.57377 289.31368,274.46933 C 287.86548,271.58183 286.24575,269.21933 285.71428,269.21933 C 285.18281,269.21933 283.56382,271.58183 282.11652,274.46933 C 279.28975,280.10902 261.80079,307.21933 260.98938,307.21933 C 260.72039,307.21933 260.7175,306.65683 260.98297,305.96933 z M 279.44906,229.79935 C 274.06431,226.54952 273.60545,225.75689 278.21428,227.6664 C 282.36611,229.38656 284.39815,230.86879 283.64166,231.62528 C 283.40005,231.86689 281.51338,231.04522 279.44906,229.79935 z M 221.27857,228.9262 C 221.6541,227.93998 222.21327,227.38498 222.52115,227.69287 C 222.82904,228.00076 222.52179,228.80766 221.83837,229.486 C 220.85075,230.46626 220.73589,230.3514 221.27857,228.9262 z M 285.11927,227.4521 C 287.37914,224.80338 287.38095,224.80279 287.38095,226.71933 C 287.38095,227.54433 287.15985,227.99823 286.88962,227.72801 C 286.61939,227.45778 285.68189,227.78752 284.80629,228.46077 C 283.83084,229.21079 283.95205,228.82015 285.11927,227.4521 z "
         id="path5189" />
      <path
         style="fill:#e3e3e3"
         d="M 225.09258,361.80841 C 221.73439,360.31887 218.70516,356.71935 218.72902,354.24682 C 218.73781,353.33647 219.24284,353.69044 219.97902,355.12293 C 220.65841,356.44491 222.48354,358.46991 224.03485,359.62293 C 226.67449,361.58486 228.32546,361.73871 249.77269,362.0215 C 270.65662,362.29687 273.07831,362.15189 277.06695,360.38753 C 279.94779,359.11319 281.89405,357.4345 282.76075,355.47648 C 284.32893,351.93372 286.79574,352.13088 288.84038,355.96239 C 291.69252,361.30712 296.02027,362.17319 319.9964,362.19737 C 343.16671,362.22073 346.23106,361.71961 350.21067,357.25635 C 352.92097,354.21666 352.99966,343.41402 350.35431,337.53723 C 348.52215,333.46696 348.52589,333.31408 350.60431,327.30829 C 352.6137,321.502 352.71401,319.3167 352.7087,281.46535 C 352.70531,257.30017 352.29965,240.26658 351.67387,238.01343 C 351.05639,235.79013 349.15831,233.05121 346.92945,231.16726 L 343.21428,228.02699 L 346.45486,229.64397 C 353.34131,233.08016 353.1823,231.96372 353.50583,279.1486 C 353.75375,315.30567 353.56668,322.37442 352.25583,326.38211 C 350.36466,332.16403 350.35623,333.64188 352.18544,338.71933 C 355.58248,348.14866 353.16205,358.22431 346.71428,361.49442 C 343.59919,363.0743 340.55605,363.23926 319.04309,362.99442 L 294.8719,362.71933 L 290.29309,359.48994 L 285.71428,356.26055 L 281.13547,359.48994 L 276.55666,362.71933 L 252.38547,362.95619 C 233.55465,363.14072 227.52457,362.88713 225.09258,361.80841 z M 281.80872,341.87214 C 280.55058,339.83642 278.17282,337.47357 276.52481,336.62135 C 274.87679,335.76913 273.76408,334.83619 274.05212,334.54816 C 275.74893,332.85135 285.30965,341.93322 284.472,344.44616 C 284.26534,345.06616 283.06686,343.90785 281.80872,341.87214 z M 255.98511,330.61516 C 256.31741,330.28287 257.17991,330.24735 257.90178,330.53622 C 258.69951,330.85544 258.46256,331.0924 257.29761,331.14038 C 256.24345,331.1838 255.65282,330.94746 255.98511,330.61516 z M 302.46428,330.55705 C 303.15178,330.27964 304.27678,330.27964 304.96428,330.55705 C 305.65178,330.83446 305.08928,331.06144 303.71428,331.06144 C 302.33928,331.06144 301.77678,330.83446 302.46428,330.55705 z M 244.89096,328.5522 C 245.06878,327.63527 245.74137,326.70958 246.38559,326.49509 C 247.1307,326.24702 247.36116,326.85365 247.01896,328.16223 C 246.37979,330.60642 244.42301,330.96502 244.89096,328.5522 z M 219.19036,327.14397 C 218.22651,324.10713 219.20015,323.79552 220.5304,326.7151 C 221.15795,328.09243 221.26137,329.21933 220.76023,329.21933 C 220.25908,329.21933 219.55264,328.28542 219.19036,327.14397 z M 324.71428,328.38303 C 324.71428,327.92307 322.69891,324.43557 320.23568,320.63303 C 317.77245,316.8305 315.74745,313.27334 315.73568,312.72823 C 315.72391,312.18313 318.18928,315.43389 321.21428,319.95215 C 327.0163,328.61829 327.30816,329.21933 325.71428,329.21933 C 325.16428,329.21933 324.71428,328.843 324.71428,328.38303 z M 249.71428,321.85627 C 249.71428,319.88689 256.34709,310.2749 257.71428,310.26301 C 258.66816,310.25471 258.81977,310.51744 258.13071,310.98464 C 257.53474,311.38872 255.39724,314.18832 253.38071,317.20598 C 251.36417,320.22364 249.71428,322.31627 249.71428,321.85627 z M 295.46428,306.5136 C 296.70178,306.27524 298.72678,306.27524 299.96428,306.5136 C 301.20178,306.75195 300.18928,306.94697 297.71428,306.94697 C 295.23928,306.94697 294.22678,306.75195 295.46428,306.5136 z M 310.21404,306.21971 C 310.44052,305.85326 309.42414,303.79076 307.95542,301.63638 C 300.9853,291.41236 290.71605,274.83854 290.73113,273.83763 C 290.74039,273.22257 291.72587,274.29433 292.92107,276.21933 C 294.11627,278.14433 298.74119,285.34433 303.19868,292.21933 C 307.65616,299.09433 311.6009,305.20683 311.96475,305.80266 C 312.3286,306.3985 311.99089,306.886 311.21428,306.886 C 310.43767,306.886 309.98756,306.58617 310.21404,306.21971 z M 259.71428,305.97079 C 259.71428,305.61409 263.56487,299.43855 268.27114,292.24736 C 278.56368,276.52035 281.20847,271.0333 282.80647,262.09142 C 283.47486,258.35136 284.35066,255.4946 284.75271,255.74308 C 285.72482,256.34388 286.56158,262.21933 285.67503,262.21933 C 285.29396,262.21933 283.77909,265.51799 282.30865,269.54969 C 279.49368,277.26784 259.71428,309.15134 259.71428,305.97079 z M 279.71428,231.57881 C 273.74089,227.3646 272.94692,225.85676 278.46428,229.20494 C 281.35178,230.95721 283.71428,232.80228 283.71428,233.3051 C 283.71428,234.44864 283.8889,234.524 279.71428,231.57881 z M 220.46428,230.18817 C 221.70178,229.69075 222.71428,228.74428 222.71428,228.08489 C 222.71428,227.4255 223.0034,227.17512 223.35678,227.5285 C 224.33166,228.50338 221.69156,231.22798 219.84184,231.15594 C 218.74044,231.11305 218.94167,230.80018 220.46428,230.18817 z M 285.34672,229.43362 C 285.07964,229.00147 285.69504,228.6479 286.71428,228.6479 C 287.73352,228.6479 288.34892,229.00147 288.08184,229.43362 C 287.81477,229.86576 287.19936,230.21933 286.71428,230.21933 C 286.2292,230.21933 285.61379,229.86576 285.34672,229.43362 z M 218.98511,226.61516 C 219.31741,226.28287 220.1799,226.24735 220.90178,226.53622 C 221.69951,226.85544 221.46256,227.0924 220.29761,227.14038 C 219.24345,227.1838 218.65282,226.94746 218.98511,226.61516 z "
         id="path5187" />
      <path
         style="fill:#dbdbdb"
         d="M 226.71479,361.09588 C 223.33861,359.74961 219.71344,356.22595 219.71802,354.29502 C 219.72015,353.39843 220.54154,354.06373 221.62387,355.83868 C 222.67003,357.55433 224.9855,359.46683 226.76935,360.08868 C 230.94118,361.54299 269.8237,361.59433 275.0163,360.15239 C 283.97224,357.66539 285.26994,344.73458 277.2006,338.38723 C 275.68478,337.19489 274.69345,336.21933 274.99763,336.21933 C 278.52371,336.21933 285.22976,345.01984 284.19294,348.28656 C 283.83206,349.42359 284.13478,351.0379 284.88166,351.95928 C 285.6146,352.86346 285.74726,353.32432 285.17647,352.98341 C 284.60567,352.6425 283.53398,353.72962 282.79494,355.39923 C 281.93312,357.34623 279.97425,359.1056 277.33276,360.30515 C 273.69867,361.95543 270.62675,362.17053 251.21428,362.13398 C 239.04375,362.11107 228.09752,361.64725 226.71479,361.09588 z M 294.71428,360.63864 C 291.47299,359.24729 287.78859,355.72576 287.73652,353.96933 C 287.68642,352.27958 289.31856,353.41527 290.87696,356.15454 C 293.34395,360.49088 297.6101,361.20748 320.9964,361.21375 C 344.88321,361.22016 347.83328,360.57211 350.25027,354.78744 C 352.31903,349.83619 352.00824,344.58698 349.27055,338.24047 L 346.90715,332.76161 L 349.06071,328.74047 C 351.17084,324.80045 351.21428,323.84183 351.21428,281.21933 C 351.21428,240.63403 351.09103,237.53768 349.37482,235.00832 C 348.36312,233.51727 346.71719,232.03764 345.7172,231.72026 C 344.71721,231.40287 343.63572,230.457 343.31389,229.61832 C 342.43636,227.33151 348.40176,231.81312 350.5047,235.02054 C 352.0353,237.35501 352.2453,241.97756 352.51057,279.17366 C 352.79767,319.4296 352.74025,320.91694 350.66086,327.08501 C 348.54784,333.35288 348.54329,333.51384 350.36457,337.55997 C 352.99975,343.41424 352.91529,354.22303 350.21067,357.25635 C 346.2269,361.72428 343.1737,362.22184 319.9964,362.18019 C 302.90616,362.14948 297.46038,361.81743 294.71428,360.63864 z M 216.71428,330.83596 C 216.71428,330.62511 217.6149,330.21708 218.71566,329.92922 C 219.81642,329.64137 220.46486,329.81388 220.15664,330.31259 C 219.61839,331.1835 216.71428,331.62503 216.71428,330.83596 z M 252.46428,330.55705 C 253.15178,330.27964 254.27678,330.27964 254.96428,330.55705 C 255.65178,330.83446 255.08928,331.06144 253.71428,331.06144 C 252.33928,331.06144 251.77678,330.83446 252.46428,330.55705 z M 242.74608,329.46933 C 242.78763,328.48954 245.27634,325.21933 245.98044,325.21933 C 246.28056,325.21933 246.00595,326.34082 245.3702,327.71153 C 244.28462,330.05207 242.67567,331.12985 242.74608,329.46933 z M 220.71428,327.21933 C 220.12558,326.11933 219.86891,325.21933 220.14391,325.21933 C 220.41891,325.21933 221.12558,326.11933 221.71428,327.21933 C 222.30298,328.31933 222.55965,329.21933 222.28465,329.21933 C 222.00965,329.21933 221.30298,328.31933 220.71428,327.21933 z M 254.46428,328.55705 C 255.15178,328.27964 256.27678,328.27964 256.96428,328.55705 C 257.65178,328.83446 257.08928,329.06144 255.71428,329.06144 C 254.33928,329.06144 253.77678,328.83446 254.46428,328.55705 z M 323.8852,324.09347 C 322.05421,321.29401 321.03588,319.30006 321.62226,319.66246 C 323.19248,320.63291 328.94653,329.2224 328.01232,329.20136 C 327.5734,329.19148 325.71619,326.89293 323.8852,324.09347 z M 248.71428,320.67988 C 248.71428,320.38318 250.28928,317.80169 252.21428,314.94323 C 256.54212,308.51675 256.87667,309.73281 252.61003,316.38178 C 249.71575,320.89214 248.71428,321.99703 248.71428,320.67988 z M 301.46428,319.5136 C 302.70178,319.27524 304.72678,319.27524 305.96428,319.5136 C 307.20178,319.75195 306.18928,319.94697 303.71428,319.94697 C 301.23928,319.94697 300.22678,319.75195 301.46428,319.5136 z M 318.50704,315.96933 C 316.11259,312.22086 315.46718,310.5994 317.2134,312.71933 C 319.16505,315.08866 320.95868,318.21933 320.36447,318.21933 C 320.13338,318.21933 319.29753,317.20683 318.50704,315.96933 z M 313.99242,308.96933 C 312.49324,307.03089 311.55018,305.21933 312.04025,305.21933 C 312.28446,305.21933 313.22139,306.34433 314.12232,307.71933 C 315.80816,310.29224 315.71427,311.19568 313.99242,308.96933 z M 259.21473,306.22007 C 258.87507,305.67047 262.74069,298.85743 267.80502,291.07998 C 278.57869,274.53449 280.10597,270.91603 282.40254,256.49525 C 283.75753,247.98688 284.26163,246.35061 284.79815,248.71933 C 285.79986,253.1419 285.83204,256.41014 284.868,255.81434 C 284.40255,255.52667 283.47486,258.35136 282.80647,262.09142 C 281.20805,271.03566 278.56385,276.52009 268.25714,292.26875 C 263.54317,299.4717 259.94414,305.78224 260.2593,306.29217 C 260.57446,306.80211 260.60731,307.21933 260.33231,307.21933 C 260.05731,307.21933 259.5544,306.76966 259.21473,306.22007 z M 303.46428,306.5136 C 304.70178,306.27524 306.72678,306.27524 307.96428,306.5136 C 309.20178,306.75195 308.18928,306.94697 305.71428,306.94697 C 303.23928,306.94697 302.22678,306.75195 303.46428,306.5136 z M 301.50704,289.96933 C 299.11259,286.22086 298.46718,284.5994 300.2134,286.71933 C 302.16505,289.08866 303.95869,292.21933 303.36447,292.21933 C 303.13338,292.21933 302.29753,291.20683 301.50704,289.96933 z M 279.2608,232.83843 C 275.52747,229.17363 275.47584,229.04467 278.33363,230.52249 C 281.69674,232.26162 284.08595,234.73681 283.55882,235.93571 C 283.36932,236.3667 281.43521,234.97292 279.2608,232.83843 z M 222.6299,229.93807 C 223.82991,228.39043 223.76208,227.95696 222.11266,226.63291 C 220.34508,225.214 220.38653,225.19103 222.71428,226.29962 C 224.08928,226.95446 225.32954,227.58204 225.47041,227.69425 C 225.61128,227.80645 224.71904,228.758 223.48764,229.80879 C 221.59429,231.42447 221.46191,231.44442 222.6299,229.93807 z M 287.25698,227.28843 C 286.94055,226.77643 287.064,226.12123 287.5313,225.83242 C 287.99861,225.54361 288.38095,225.96251 288.38095,226.76332 C 288.38095,228.44949 288.06561,228.59681 287.25698,227.28843 z "
         id="path5185" />
      <path
         style="fill:#d3d3d3"
         d="M 226.04302,359.76157 C 224.29882,359.00286 222.38632,357.47505 221.79302,356.36645 C 219.98981,352.99714 220.56856,353.02457 223.63022,356.45355 L 226.54615,359.71933 L 249.88022,360.26347 L 273.21428,360.80761 L 251.21428,360.97433 C 234.41335,361.10165 228.46484,360.81505 226.04302,359.76157 z M 321.44383,360.26347 L 344.67339,359.71933 L 347.35618,357.03426 C 351.36523,353.0218 351.76221,345.36623 348.29567,338.91642 C 345.13243,333.03091 345.13149,332.88456 348.21847,326.79985 L 350.71428,321.88037 L 350.71428,281.51773 C 350.71428,238.20845 350.51289,236.29296 345.59741,232.85002 C 344.31693,231.95314 343.84088,231.21933 344.53952,231.21933 C 346.92291,231.21933 350.61595,236.38005 351.2271,240.56466 C 351.56083,242.84973 351.69447,262.71933 351.52408,284.71933 C 351.2241,323.45158 351.14603,324.84677 349.06071,328.74047 L 346.90715,332.76161 L 349.27055,338.24047 C 352.00824,344.58698 352.31903,349.83619 350.25027,354.78744 C 347.78983,360.6761 345.00209,361.2498 319.9964,361.01347 L 298.21428,360.80761 L 321.44383,360.26347 z M 274.71428,359.5131 C 277.67019,358.43255 280.6941,354.84381 281.27993,351.72105 C 282.00311,347.86622 279.54977,341.43349 276.42511,338.99157 C 275.20915,338.0413 274.73678,337.2538 275.37539,337.24157 C 277.3278,337.20418 281.59634,343.07376 282.28455,346.74219 C 282.64196,348.64739 282.64157,351.3729 282.28367,352.79888 C 281.4556,356.09815 277.34868,360.24323 275.00973,360.14038 C 273.61721,360.07915 273.5509,359.93838 274.71428,359.5131 z M 292.16882,357.76478 C 290.81883,356.41478 289.71428,354.7791 289.71428,354.12993 C 289.71428,353.48075 290.67643,354.17279 291.8524,355.66779 C 293.02836,357.16279 294.94086,358.76995 296.1024,359.23926 C 297.8761,359.95592 297.92677,360.10271 296.41882,360.15594 C 295.43133,360.19081 293.51882,359.11478 292.16882,357.76478 z M 283.79323,349.80266 C 283.74981,348.7485 283.98616,348.15787 284.31845,348.49016 C 284.65074,348.82246 284.68626,349.68495 284.39739,350.40683 C 284.07817,351.20456 283.84121,350.96761 283.79323,349.80266 z M 241.6245,328.38709 C 242.16382,327.37935 243.38848,325.91685 244.34597,325.13709 C 245.88599,323.88291 245.86741,324.09431 244.18496,326.96933 C 242.21326,330.33861 239.89228,331.62377 241.6245,328.38709 z M 221.34641,326.78065 C 220.04799,324.79901 220.0038,324.3932 221.13364,324.82676 C 221.91794,325.12772 222.83003,326.07858 223.1605,326.93978 C 224.15797,329.53914 223.09262,329.44569 221.34641,326.78065 z M 326.67325,326.02691 L 324.41404,322.71933 L 327.26113,325.43903 C 328.82703,326.93486 329.84367,328.42327 329.52034,328.7466 C 329.19701,329.06994 327.91582,327.84607 326.67325,326.02691 z M 250.93442,315.22703 C 252.18834,313.03127 253.55817,311.23127 253.97847,311.22703 C 254.39877,311.2228 253.55147,313.01933 252.09558,315.21933 C 248.68504,320.37301 247.99311,320.3776 250.93442,315.22703 z M 266.40616,291.55574 C 271.69968,283.49077 276.83285,274.78117 277.81321,272.20109 C 279.61994,267.44616 282.71428,248.11635 282.71428,241.58495 C 282.71428,238.83688 281.90413,237.20918 279.18095,234.486 C 274.8905,230.19555 275.27346,228.95698 279.6719,232.89813 C 284.43617,237.16706 284.97565,241.42832 282.55637,255.68185 C 281.43263,262.30246 279.73569,269.76733 278.78539,272.27044 C 276.96458,277.0665 258.72621,306.12203 257.49793,306.18349 C 257.10393,306.2032 261.11264,299.62072 266.40616,291.55574 z M 223.18703,230.0621 L 225.9295,227.90488 L 223.57189,226.49304 C 222.2752,225.71652 221.96982,225.31089 222.89327,225.59163 C 223.81671,225.87236 226.17527,226.40279 228.13452,226.77034 C 231.94042,227.48434 232.09052,229.21933 228.34639,229.21933 C 227.10897,229.21933 225.22303,229.88002 224.15541,230.68753 C 221.05831,233.03005 220.15531,232.44685 223.18703,230.0621 z M 288.36494,227.75136 C 288.05512,226.94397 288.13856,226.07514 288.55037,225.82063 C 288.96218,225.56612 289.36456,226.22671 289.44455,227.28861 C 289.61754,229.58517 289.14617,229.78721 288.36494,227.75136 z "
         id="path5183" />
      <path
         style="fill:#cbcbcb"
         d="M 227.71428,359.53924 C 225.51593,358.69731 221.71076,355.04081 221.73652,353.79502 C 221.74875,353.20339 222.53625,353.70872 223.48652,354.91798 C 226.43646,358.67189 229.95469,359.21933 251.13016,359.21933 C 277.72492,359.21933 279.71428,358.49848 279.71428,348.8618 C 279.71428,345.43744 279.07023,343.60737 276.9987,341.1455 C 274.70571,338.42043 274.60919,338.09272 276.37845,339.0396 C 279.22571,340.56341 282.01344,347.81111 281.27215,351.76254 C 280.94848,353.48785 279.53022,355.98394 278.12046,357.3094 C 275.57807,359.69977 275.36921,359.72093 252.38578,359.91652 C 239.64145,360.02497 228.53928,359.85519 227.71428,359.53924 z M 296.71428,359.53924 C 294.51593,358.69731 290.71076,355.04081 290.73652,353.79502 C 290.74875,353.20339 291.53625,353.70872 292.48652,354.91798 C 295.44043,358.67695 298.94903,359.21933 320.3115,359.21933 C 344.12819,359.21933 346.76868,358.61455 348.71619,352.71353 C 350.31625,347.86532 349.2676,341.63355 346.16784,337.56956 C 343.19328,333.6697 343.06094,331.12057 345.70867,328.72441 C 346.80558,327.73172 348.15307,325.29947 348.70309,323.31942 C 349.29126,321.20204 349.70542,303.54089 349.7087,280.43721 C 349.71459,238.99203 349.42045,236.00855 345.05798,233.26342 C 344.04394,232.62532 343.8619,232.27024 344.65343,232.47434 C 345.44497,232.67844 347.01997,234.08701 348.15343,235.6045 C 350.14594,238.27207 350.22364,239.74313 350.49653,279.96539 L 350.77878,321.56721 L 348.24653,326.74294 C 346.85379,329.58959 345.71428,332.41251 345.71428,333.01609 C 345.71428,333.61966 346.87591,336.27481 348.29567,338.91642 C 351.76238,345.36654 351.36526,353.02195 347.35582,357.03426 L 344.67268,359.71933 L 321.44348,359.91652 C 308.66742,360.02497 297.53928,359.85519 296.71428,359.53924 z M 222.49815,329.37407 C 223.25721,328.89243 223.5088,327.77457 223.11362,326.63938 C 222.48142,324.82334 222.52914,324.82733 223.99451,326.713 C 225.53148,328.69082 224.76428,330.1887 222.21428,330.1887 C 221.66428,330.1887 221.79202,329.82212 222.49815,329.37407 z M 241.30284,326.69211 C 242.78252,324.75214 244.19505,323.36677 244.44179,323.6135 C 245.05554,324.22726 240.55053,330.21933 239.47533,330.21933 C 239.00077,330.21933 239.82315,328.63208 241.30284,326.69211 z M 327.89089,326.16722 C 326.37612,324.2495 326.09422,323.42789 327.0809,323.80652 C 328.73268,324.44037 332.24245,329.25383 330.98733,329.164 C 330.56215,329.13357 329.16875,327.78502 327.89089,326.16722 z M 298.94628,323.21933 C 298.94628,321.29433 299.15208,320.50683 299.40361,321.46933 C 299.65513,322.43183 299.65513,324.00683 299.40361,324.96933 C 299.15208,325.93183 298.94628,325.14433 298.94628,323.21933 z M 248.72746,317.71933 C 248.72746,317.16933 249.62153,315.36933 250.71428,313.71933 C 251.80703,312.06933 252.7011,311.16933 252.7011,311.71933 C 252.7011,312.26933 251.80703,314.06933 250.71428,315.71933 C 249.62153,317.36933 248.72746,318.26933 248.72746,317.71933 z M 298.87217,313.21933 C 298.87217,311.84433 299.09915,311.28183 299.37656,311.96933 C 299.65397,312.65683 299.65397,313.78183 299.37656,314.46933 C 299.09915,315.15683 298.87217,314.59433 298.87217,313.21933 z M 258.35833,301.96933 C 259.82636,299.63183 263.7082,293.72296 266.98464,288.83851 C 276.45715,274.71707 278.4248,269.65806 280.12502,255.05347 C 281.75482,241.05368 281.1647,236.34865 277.45291,233.74881 C 276.25191,232.9076 275.77939,232.21933 276.40288,232.21933 C 278.68676,232.21933 282.71428,238.30863 282.71428,241.76167 C 282.71428,248.14475 279.5967,267.50733 277.81321,272.20109 C 276.11156,276.67946 257.37437,306.21933 256.23538,306.21933 C 255.93498,306.21933 256.89031,304.30683 258.35833,301.96933 z M 285.79323,257.80266 C 285.74981,256.7485 285.98616,256.15787 286.31845,256.49016 C 286.65074,256.82245 286.68626,257.68496 286.39739,258.40683 C 286.07817,259.20456 285.84121,258.96761 285.79323,257.80266 z M 283.96646,238.71933 C 283.95536,236.51933 284.15107,235.50158 284.40136,236.45767 C 284.65165,237.41376 284.66073,239.21376 284.42154,240.45767 C 284.18235,241.70158 283.97756,240.91933 283.96646,238.71933 z M 215.73158,232.21933 C 215.73891,231.94433 216.12539,231.1191 216.59043,230.38548 C 217.2712,229.31155 217.55438,229.36026 218.04373,230.63548 C 218.79888,232.60338 221.59099,232.62715 224.15541,230.68753 C 225.22303,229.88002 227.06053,229.21933 228.23874,229.21933 C 232.26602,229.21933 231.87434,227.73234 227.54178,226.57334 C 223.58447,225.51471 224.19803,225.4174 234.71428,225.43582 C 241.99556,225.44857 245.11374,225.736 243.21428,226.21933 C 241.15263,226.74393 240.83985,227.02922 242.21428,227.13142 C 246.3647,227.44006 241.24951,228.96369 233.71428,229.66326 C 229.58928,230.04623 225.24061,230.98795 224.05057,231.75597 C 222.06888,233.03489 215.70039,233.38961 215.73158,232.21933 z M 283.71428,231.14708 C 283.71428,230.70988 284.95178,230.20979 286.46428,230.03575 C 288.44214,229.80818 289.21428,229.15777 289.21428,227.71933 C 289.21428,225.83044 289.9087,225.71471 301.71428,225.63608 L 314.21428,225.55284 L 303.40367,226.13608 C 293.96612,226.64525 292.37849,226.98973 290.90367,228.84831 C 289.24494,230.93865 283.71428,232.70705 283.71428,231.14708 z M 259.46428,225.5136 C 260.70178,225.27524 262.72678,225.27524 263.96428,225.5136 C 265.20178,225.75195 264.18928,225.94697 261.71428,225.94697 C 259.23928,225.94697 258.22678,225.75195 259.46428,225.5136 z "
         id="path5181" />
      <path
         style="fill:#c2c2c2"
         d="M 227.11394,357.79139 C 225.40875,357.04908 223.73538,355.71669 223.39533,354.83053 C 222.57709,352.69825 223.29106,352.79611 225.63205,355.1371 C 228.3013,357.80635 235.35591,358.48357 256.18822,358.07039 L 273.88882,357.71933 L 276.40898,354.78866 C 278.46317,352.39988 278.83251,351.13745 278.40646,347.96105 C 278.11898,345.81773 277.09839,343.19627 276.13849,342.13558 C 275.17859,341.0749 274.63915,339.96113 274.93974,339.66054 C 276.3658,338.23448 279.71428,344.72828 279.71428,348.91993 C 279.71428,358.52465 277.72388,359.23132 250.81506,359.18019 C 235.79492,359.15165 229.37442,358.77543 227.11394,357.79139 z M 296.11394,357.79139 C 294.40875,357.04908 292.73538,355.71669 292.39533,354.83053 C 291.53447,352.58717 292.66102,352.82051 295.47943,355.46933 C 297.74023,357.59409 298.84943,357.73887 315.40721,358.07039 C 344.34903,358.64987 347.71428,357.58165 347.71428,347.81523 C 347.71428,344.00324 347.14569,341.76621 345.71428,339.94646 C 342.82947,336.27902 343.31485,334.14246 346.22398,337.70282 C 351.45037,344.09916 350.29396,355.24352 344.13691,357.8161 C 339.44968,359.77455 300.62363,359.75457 296.11394,357.79139 z M 219.28598,332.46933 C 219.78375,332.05683 220.52686,331.26933 220.93733,330.71933 C 221.36324,330.14865 221.69023,330.47065 221.69897,331.46933 C 221.70748,332.44212 220.97408,333.21933 220.04761,333.21933 C 219.13095,333.21933 218.78821,332.88183 219.28598,332.46933 z M 264.98511,331.61516 C 265.31741,331.28287 266.17991,331.24735 266.90178,331.53622 C 267.69951,331.85544 267.46256,332.0924 266.29761,332.14038 C 265.24345,332.1838 264.65282,331.94746 264.98511,331.61516 z M 311.98511,330.61516 C 312.31741,330.28287 313.17991,330.24735 313.90178,330.53622 C 314.69951,330.85544 314.46256,331.0924 313.29761,331.14038 C 312.24345,331.1838 311.65282,330.94746 311.98511,330.61516 z M 341.92974,330.35249 C 341.0308,329.79691 341.35757,329.21301 343.08474,328.28866 C 347.99714,325.65962 348.18737,324.1918 348.53681,286.21933 C 348.90676,246.01723 348.51391,239.45475 345.54661,236.26974 C 343.48292,234.05462 343.61415,232.42138 345.74978,233.74127 C 349.34212,235.96146 349.71439,240.35249 349.7087,280.43721 C 349.70545,303.35274 349.28944,321.20852 348.71022,323.29359 C 347.53462,327.52555 343.74283,331.47304 341.92974,330.35249 z M 225.00602,329.45819 C 225.44147,329.21985 225.26485,328.38272 224.61352,327.59792 C 222.65551,325.23866 224.41227,324.86005 226.83673,327.11878 C 228.0768,328.27408 228.59336,329.21933 227.98463,329.21933 C 227.3759,329.21933 226.27855,329.37058 225.54607,329.55543 C 224.81358,329.74029 224.57056,329.69653 225.00602,329.45819 z M 236.47494,329.64665 C 236.15996,329.33168 237.54594,327.56766 239.55488,325.7266 C 244.07804,321.58143 244.86809,322.01783 241.30284,326.69211 C 238.66372,330.15218 237.6195,330.79121 236.47494,329.64665 z M 330.44209,329.50676 C 331.3592,329.18891 331.26683,328.46607 330.07708,326.65028 C 328.07298,323.59163 328.48971,323.60254 332.71428,326.71933 C 334.57799,328.09433 335.45291,329.22547 334.65856,329.23298 C 333.86421,329.24049 332.31428,329.40091 331.21428,329.58946 C 330.11428,329.77801 329.76679,329.7408 330.44209,329.50676 z M 289.79323,321.80266 C 289.74981,320.7485 289.98616,320.15787 290.31845,320.49016 C 290.65074,320.82246 290.68626,321.68496 290.39739,322.40683 C 290.07817,323.20456 289.84121,322.96761 289.79323,321.80266 z M 323.58672,321.46933 C 322.34285,319.88327 322.37822,319.8479 323.96428,321.09177 C 325.63003,322.39814 326.15976,323.21933 325.33672,323.21933 C 325.12907,323.21933 324.34157,322.43183 323.58672,321.46933 z M 248.71428,315.50844 C 248.71428,314.93412 249.50178,313.84662 250.46428,313.09177 C 252.08304,311.82226 252.10426,311.86932 250.74725,313.71933 C 249.94038,314.81933 249.15288,315.90683 248.99725,316.136 C 248.84161,316.36516 248.71428,316.08276 248.71428,315.50844 z M 278.46428,306.55705 C 279.15178,306.27964 280.27678,306.27964 280.96428,306.55705 C 281.65178,306.83446 281.08928,307.06144 279.71428,307.06144 C 278.33928,307.06144 277.77678,306.83446 278.46428,306.55705 z M 254.71428,305.65588 C 254.71428,305.34598 258.55768,299.21971 263.25517,292.04194 C 275.43062,273.43785 276.60118,270.81124 278.25577,258.38217 C 280.39523,242.31079 279.99265,237.3931 276.34354,235.0237 C 275.7543,234.64111 275.58579,234.01448 275.96907,233.6312 C 277.14948,232.4508 279.63024,235.25545 280.63979,238.91171 C 281.30275,241.31275 281.14356,246.30432 280.12502,255.05347 C 278.35323,270.27289 276.77716,274.04427 264.27993,292.96933 C 256.18919,305.22147 254.71428,307.17758 254.71428,305.65588 z M 284.79323,245.80266 C 284.74981,244.7485 284.98616,244.15787 285.31845,244.49016 C 285.65074,244.82246 285.68626,245.68496 285.39739,246.40683 C 285.07817,247.20456 284.84121,246.96761 284.79323,245.80266 z M 215.71428,234.31777 C 215.71428,233.27933 217.61649,231.77605 218.17995,232.36919 C 218.36289,232.56177 217.88295,233.29957 217.11342,234.00876 C 216.34389,234.71794 215.71428,234.857 215.71428,234.31777 z M 283.79323,233.80266 C 283.74981,232.7485 283.98616,232.15787 284.31845,232.49016 C 284.65074,232.82246 284.68626,233.68496 284.39739,234.40683 C 284.07817,235.20456 283.84121,234.96761 283.79323,233.80266 z M 233.44525,229.56339 C 234.12228,229.28947 235.47228,229.2728 236.44525,229.52634 C 237.41822,229.77988 236.86428,230.004 235.21428,230.02438 C 233.56428,230.04476 232.76822,229.83732 233.44525,229.56339 z M 242.60943,228.30529 C 243.80296,227.54955 243.80296,227.35573 242.60943,226.96413 C 241.8421,226.71237 242.00133,226.62455 242.96328,226.76897 C 243.92524,226.9134 244.96429,226.62382 245.2723,226.12545 C 245.58031,225.62708 248.61826,225.30442 252.0233,225.40841 L 258.21428,225.5975 L 252.54737,225.95584 C 249.19748,226.16767 246.38755,226.90809 245.67492,227.76676 C 245.01188,228.56567 243.73699,229.21244 242.84184,229.20402 C 241.51287,229.19151 241.47024,229.02663 242.60943,228.30529 z M 266.46428,225.55705 C 267.15178,225.27964 268.27678,225.27964 268.96428,225.55705 C 269.65178,225.83446 269.08928,226.06144 267.71428,226.06144 C 266.33928,226.06144 265.77678,225.83446 266.46428,225.55705 z M 316.48219,225.4946 C 318.27954,225.27204 320.97954,225.27663 322.48219,225.5048 C 323.98484,225.73298 322.51428,225.91507 319.21428,225.90946 C 315.91428,225.90385 314.68484,225.71716 316.48219,225.4946 z M 327.97803,225.50175 C 329.49809,225.27189 331.74809,225.27804 332.97803,225.5154 C 334.20797,225.75276 332.96428,225.94082 330.21428,225.93332 C 327.46428,225.92581 326.45797,225.7316 327.97803,225.50175 z "
         id="path5179" />
      <path
         style="fill:#a9b4c8"
         d="M 287.21971,333.5917 C 289.55968,331.88067 291.01193,331.82591 290.46479,333.46933 C 290.2359,334.15683 288.98983,334.7744 287.69575,334.8417 C 285.46127,334.95792 285.43731,334.89502 287.21971,333.5917 z M 295.44525,331.56339 C 296.12228,331.28947 297.47228,331.2728 298.44525,331.52634 C 299.41822,331.77988 298.86428,332.004 297.21428,332.02438 C 295.56428,332.04476 294.76822,331.83732 295.44525,331.56339 z M 315.46428,330.55705 C 316.15178,330.27964 317.27678,330.27964 317.96428,330.55705 C 318.65178,330.83446 318.08928,331.06144 316.71428,331.06144 C 315.33928,331.06144 314.77678,330.83446 315.46428,330.55705 z M 216.36185,320.03542 C 215.38908,316.40305 215.63973,235.88543 216.62867,234.32361 C 217.11474,233.55597 218.19436,233.18958 219.02784,233.50941 C 219.86131,233.82925 222.11877,233.28769 224.0444,232.30594 C 226.02336,231.29701 231.15477,230.21996 235.84704,229.82864 C 240.84162,229.4121 244.79052,228.55533 245.76014,227.67782 C 246.99299,226.56211 250.33597,226.21933 259.984,226.21933 C 271.5391,226.21933 275.48481,227.00705 272.66358,228.75066 C 271.60781,229.40317 263.49644,230.21707 239.41226,232.08712 C 220.11889,233.58518 220.73163,232.13701 220.65467,276.41967 C 220.62188,295.28448 220.23989,312.87883 219.80579,315.51821 C 218.85582,321.29413 217.25962,323.38777 216.36185,320.03542 z M 287.90251,264.71933 C 286.67408,260.23488 284.71428,242.34347 284.71428,235.61338 C 284.71428,231.76165 284.98402,231.21933 286.89983,231.21933 C 288.10188,231.21933 290.01438,230.34784 291.14983,229.28268 C 292.28528,228.21753 294.5469,227.10508 296.17566,226.81057 C 302.06531,225.74564 338.53166,226.05123 340.64686,227.18325 C 344.55129,229.27284 344.82867,229.23658 318.71428,230.0498 C 294.01024,230.81911 292.01053,231.35209 289.88843,237.73279 C 288.83729,240.89334 288.7841,243.89488 289.63174,252.21933 C 290.25231,258.31382 290.34371,263.97805 289.84957,265.71933 L 288.99823,268.71933 L 287.90251,264.71933 z "
         id="path5177" />
      <path
         style="fill:#b2b2b2"
         d="M 229.87163,357.26786 C 228.03317,356.80925 226.03817,355.94322 225.4383,355.34335 C 223.59561,353.50066 225.56365,352.80081 228.36904,354.30116 C 230.41582,355.39579 235.79706,355.71933 251.95638,355.71933 L 272.89197,355.71933 L 274.8856,353.2567 C 276.84498,350.83636 276.86507,349.92696 275.10728,343.21933 C 274.4975,340.89241 274.57038,340.83096 276.15991,342.33175 C 277.09919,343.21858 278.10652,345.72478 278.39842,347.90108 C 278.83356,351.14532 278.47534,352.38584 276.4095,354.78866 L 273.88985,357.71933 L 253.55206,357.91051 C 242.36628,358.01566 231.71009,357.72647 229.87163,357.26786 z M 299.56823,357.51311 C 296.55869,357.0507 292.35687,353.21933 294.85929,353.21933 C 295.65954,353.21933 296.87678,353.78183 297.56428,354.46933 C 298.4862,355.39125 304.41662,355.71933 320.15929,355.71933 C 340.02327,355.71933 341.65599,355.58206 343.6904,353.74094 C 345.49204,352.11048 345.79693,350.96735 345.42404,347.24094 C 345.17518,344.75405 344.65449,341.59433 344.26695,340.21933 L 343.56234,337.71933 L 345.63831,340.08011 C 347.18676,341.84101 347.71428,343.80043 347.71428,347.79116 C 347.71428,354.09272 345.69149,356.63038 339.90601,357.58694 C 335.93474,358.24354 303.94104,358.18498 299.56823,357.51311 z M 218.2042,333.20302 C 217.85874,332.64405 217.08765,332.48858 216.49067,332.85753 C 215.81566,333.27471 215.69541,333.05888 216.17264,332.28671 C 216.72523,331.3926 217.24431,331.34935 218.02715,332.1322 C 219.5988,333.70385 221.71428,333.46696 221.71428,331.71933 C 221.71428,330.89433 222.34114,330.21933 223.10729,330.21933 C 224.61572,330.21933 225.95186,332.64842 224.97871,333.62156 C 223.99005,334.61023 218.87873,334.29444 218.2042,333.20302 z M 258.46428,331.5136 C 259.70178,331.27524 261.72678,331.27524 262.96428,331.5136 C 264.20178,331.75195 263.18928,331.94697 260.71428,331.94697 C 258.23928,331.94697 257.22678,331.75195 258.46428,331.5136 z M 243.46428,330.55705 C 244.15178,330.27964 245.27678,330.27964 245.96428,330.55705 C 246.65178,330.83446 246.08928,331.06144 244.71428,331.06144 C 243.33928,331.06144 242.77678,330.83446 243.46428,330.55705 z M 226.97644,329.38169 C 228.6405,328.72343 228.63442,328.59543 226.86709,327.0822 C 225.83776,326.20086 224.36979,325.19118 223.60493,324.83846 C 222.84007,324.48574 223.33928,324.45585 224.71428,324.77203 C 233.27211,326.73989 235.28399,326.53603 238.93419,323.33111 C 242.98778,319.77201 243.29178,319.67592 244.0713,321.70733 C 244.38535,322.52574 244.29053,323.08824 243.86059,322.95733 C 242.73825,322.61562 235.7419,328.91362 236.45343,329.62514 C 236.78023,329.95195 234.38511,330.1877 231.13095,330.14904 C 227.81204,330.10962 225.98797,329.77271 226.97644,329.38169 z M 333.5492,329.50247 C 335.82647,329.06895 335.80178,328.99492 332.5492,326.5047 C 330.671,325.06671 330.08789,324.25936 331.21428,324.65639 C 332.31428,325.04412 335.30404,325.61143 337.85819,325.91707 C 342.13465,326.42881 342.64897,326.24864 344.35819,323.64004 C 346.08746,321.00084 346.21428,318.09859 346.21428,281.1647 C 346.21428,248.85577 345.95193,241.03189 344.79611,238.87222 C 343.08985,235.68406 344.14774,234.07171 346.16075,236.79233 C 348.46255,239.90325 348.88261,248.64141 348.53681,286.21933 C 348.28745,313.31632 347.89456,322.33115 346.87699,324.30406 C 344.9588,328.02313 340.61454,330.24154 335.55999,330.08315 C 333.10307,330.00616 332.22912,329.75377 333.5492,329.50247 z M 247.79323,317.80266 C 247.74981,316.7485 247.98616,316.15787 248.31845,316.49016 C 248.65074,316.82246 248.68626,317.68496 248.39739,318.40683 C 248.07817,319.20456 247.84121,318.96761 247.79323,317.80266 z M 252.36068,304.96933 C 252.78113,304.28183 257.50439,297.05812 262.85684,288.91663 C 268.20928,280.77515 273.28098,272.00015 274.12728,269.41663 C 276.35604,262.61285 278.19701,241.98983 276.80739,239.3933 C 275.50281,236.95568 275.39731,235.21933 276.55377,235.21933 C 277.96949,235.21933 279.71536,240.10901 279.69476,244.01638 C 279.651,252.31585 276.75402,269.22366 274.66152,273.39214 C 270.6197,281.44386 254.22328,306.16244 252.90526,306.19098 C 252.11454,306.20811 251.89892,305.7244 252.36068,304.96933 z "
         id="path5175" />
      <path
         style="fill:#9aa5b8"
         d="M 284.94628,348.21933 C 284.94628,346.29433 285.15208,345.50683 285.40361,346.46933 C 285.65513,347.43183 285.65513,349.00683 285.40361,349.96933 C 285.15208,350.93183 284.94628,350.14433 284.94628,348.21933 z M 285.94833,336.01719 C 286.18471,335.30803 287.14373,334.7259 288.07948,334.72357 C 289.01522,334.72124 290.1255,334.16397 290.54676,333.48521 C 291.05647,332.66392 295.31044,332.09509 303.26349,331.78477 C 314.91671,331.33007 315.00263,331.34194 306.71428,332.26176 C 302.03928,332.78057 296.63928,333.85064 294.71428,334.63968 C 289.09066,336.94475 285.44835,337.51711 285.94833,336.01719 z M 320.47594,330.51207 C 321.71985,330.27288 323.51985,330.28196 324.47594,330.53225 C 325.43203,330.78254 324.41428,330.97825 322.21428,330.96715 C 320.01428,330.95605 319.23203,330.75126 320.47594,330.51207 z M 218.86104,323.33119 C 217.72338,322.61029 217.72338,322.09497 218.86104,320.0965 C 219.91742,318.2408 220.27639,309.49307 220.49742,280.21933 C 220.67168,257.14024 221.1833,241.69978 221.82783,240.06811 C 224.14552,234.2007 226.60809,233.08198 239.39155,232.08904 C 261.63839,230.36106 271.21484,229.40653 272.83524,228.75557 C 273.7802,228.37596 274.67115,228.66455 274.97162,229.44757 C 275.26537,230.21306 274.78325,230.84622 273.85067,230.91971 C 272.95065,230.99063 270.41428,231.49059 268.21428,232.03072 C 266.01428,232.57085 257.68928,233.30981 249.71428,233.67285 C 241.73928,234.03589 233.52558,234.77504 231.46161,235.31539 C 224.3173,237.1858 224.35459,236.98109 223.4099,279.52445 C 222.89732,302.60837 222.14098,318.50308 221.47925,320.09769 C 220.88089,321.53959 220.46398,323.05683 220.5528,323.46933 C 220.75583,324.4123 220.53923,324.39461 218.86104,323.33119 z M 324.47127,321.46933 C 322.42807,319.16694 294.35133,276.32664 292.07727,272.04165 C 290.37568,268.83536 289.38723,258.35609 289.34608,243.08636 C 289.31531,231.66721 292.59759,230.21933 318.5152,230.21933 C 328.45308,230.21933 337.70352,229.79372 339.07172,229.27353 C 340.85537,228.59539 341.86225,228.6927 342.62967,229.61739 C 344.65629,232.05931 336.82605,233.21933 318.31614,233.21933 C 299.2149,233.21933 294.50316,234.15842 293.21326,238.22255 C 292.8317,239.42473 292.83348,246.55331 293.21721,254.06383 C 294.1107,271.55174 294.92315,273.56052 310.87355,297.71933 C 324.43058,318.25309 329.54612,327.18798 324.47127,321.46933 z "
         id="path5173" />
      <path
         style="fill:#a2a2a2"
         d="M 231.71428,355.49847 C 224.60702,354.22345 230.01513,353.71933 250.80076,353.71933 C 276.30657,353.71933 276.15989,353.75826 275.29227,347.21933 L 274.82787,343.71933 L 275.90671,346.93785 C 277.4092,351.42028 275.16452,354.71843 270.03442,355.5661 C 265.8167,356.26301 235.67951,356.20983 231.71428,355.49847 z M 300.71428,355.54291 C 293.91106,354.20149 298.5433,353.75147 315.79786,354.07752 C 326.23913,354.27483 336.79175,354.13488 339.24813,353.76652 L 343.71428,353.09678 L 343.72959,346.90806 C 343.74039,342.54331 344.03061,341.16142 344.71428,342.21933 C 346.52627,345.02318 345.88568,351.75413 343.61078,353.81434 C 341.7107,355.5351 339.65562,355.73464 322.36078,355.87759 C 311.8302,355.96463 302.08928,355.81403 300.71428,355.54291 z M 215.72902,336.02835 C 215.72091,334.54831 216.13319,333.07847 216.64518,332.76204 C 218.23303,331.78069 218.45541,333.59957 217.06787,336.21933 L 215.74376,338.71933 L 215.72902,336.02835 z M 222.21428,334.31859 C 224.31153,333.85433 225.12586,333.13764 224.92044,331.93691 C 224.72216,330.77787 225.29125,330.21933 226.67044,330.21933 C 227.83527,330.21933 228.71428,330.8751 228.71428,331.74408 C 228.71428,333.45235 224.72877,335.28132 221.39918,335.10102 C 219.77447,335.01304 219.98345,334.81243 222.21428,334.31859 z M 245.57066,332.10941 C 243.88964,331.04425 253.01181,331.10171 260.71428,332.20478 C 265.65244,332.91198 265.22916,332.99124 256.57066,332.98065 C 251.26667,332.97417 246.31667,332.58211 245.57066,332.10941 z M 239.98511,330.61516 C 240.31741,330.28287 241.17991,330.24735 241.90178,330.53622 C 242.69951,330.85544 242.46256,331.0924 241.29761,331.14038 C 240.24345,331.1838 239.65282,330.94746 239.98511,330.61516 z M 257.92485,326.61817 C 256.87229,325.47629 256.87229,325.2182 257.92485,325.21317 C 258.63404,325.20978 260.42875,324.57342 261.91309,323.79903 C 264.2355,322.58742 264.77559,322.58828 265.78554,323.80519 C 266.43104,324.58297 266.73402,325.21933 266.45885,325.21933 C 266.18367,325.21933 264.44107,325.84881 262.5864,326.61817 C 259.69735,327.81662 259.02957,327.81662 257.92485,326.61817 z M 274.21428,327.00348 C 270.43637,325.67119 270.55623,325.79478 271.26099,323.95821 C 271.78045,322.60452 272.19021,322.58583 274.53453,323.80892 C 278.17362,325.70752 283.21102,325.57974 285.25375,323.537 C 286.83018,321.96057 286.82265,321.77174 285.13405,320.537 C 284.14293,319.81228 281.59758,319.21933 279.4777,319.21933 C 276.7231,319.21933 274.92591,318.52187 273.1789,316.77486 C 270.61368,314.20964 270.69941,312.25495 273.52127,308.96933 C 276.36737,305.65548 290.9734,307.66318 288.8224,311.07258 C 288.15067,312.13728 287.50691,312.17872 285.80325,311.26694 C 284.61229,310.62956 281.74256,310.2456 279.42607,310.4137 C 275.98282,310.66356 275.21428,311.08428 275.21428,312.71933 C 275.21428,314.21779 275.96658,314.78376 278.21428,314.97624 C 284.6866,315.53052 288.67796,317.22645 289.29487,319.68439 C 291.02969,326.59647 283.46749,330.26665 274.21428,327.00348 z M 294.71428,317.66707 L 294.71428,307.11481 L 299.88568,307.41707 C 305.93438,307.77061 308.04202,310.21933 302.29761,310.21933 C 298.9599,310.21933 298.71428,310.43105 298.71428,313.30815 L 298.71428,316.39697 L 304.70535,316.05815 C 308.59048,315.83843 310.85109,316.12436 311.13645,316.87156 C 311.86914,318.79015 310.64629,319.21933 304.44692,319.21933 L 298.51289,319.21933 L 298.87079,323.71933 C 299.19767,327.82929 299.03305,328.21933 296.97149,328.21933 C 294.77115,328.21933 294.71428,327.95347 294.71428,317.66707 z M 227.21428,325.13368 C 225.48703,324.31748 225.56352,324.255 227.77521,324.67556 C 231.996,325.47815 237.42761,323.39864 240.15766,319.9349 C 241.8849,317.74346 242.69563,317.2437 242.70319,318.36574 C 242.70929,319.27126 241.12362,321.40876 239.17948,323.11574 C 235.50474,326.34221 231.27971,327.05476 227.21428,325.13368 z M 338.68821,324.91289 C 344.77567,322.82138 344.76904,322.87452 344.47803,278.51821 C 344.30219,251.71704 344.5476,238.65069 345.21428,239.31794 C 345.8478,239.95199 346.21428,255.06726 346.21428,280.56251 C 346.21428,317.40486 346.06442,321.03498 344.44123,323.51278 C 343.02282,325.67796 341.92271,326.20804 338.94123,326.16289 L 335.21428,326.10645 L 338.68821,324.91289 z M 331.98511,324.61516 C 332.31741,324.28287 333.17991,324.24735 333.90178,324.53622 C 334.69951,324.85544 334.46256,325.0924 333.29761,325.14038 C 332.24345,325.1838 331.65282,324.94746 331.98511,324.61516 z M 263.28912,312.34043 C 262.97928,311.83909 263.39818,311.17087 264.22002,310.8555 C 265.04187,310.54013 265.71428,310.69142 265.71428,311.1917 C 265.71428,312.54725 263.93718,313.38901 263.28912,312.34043 z M 259.29782,291.23235 C 265.08239,282.43951 270.65917,273.32701 271.69067,270.98235 C 273.54819,266.76008 275.68605,251.74472 275.74469,242.50874 C 275.76923,238.64309 275.9798,238.07136 276.83643,239.54447 C 278.30948,242.07763 276.10528,264.16886 273.76492,270.32817 C 271.49796,276.29433 251.63128,307.08149 249.99735,307.16049 C 249.32804,307.19285 253.51325,300.02519 259.29782,291.23235 z "
         id="path5171" />
      <path
         style="fill:#9c9c9c"
         d="M 240.96428,353.47383 C 246.32678,353.29402 255.10178,353.29402 260.46428,353.47383 C 265.82678,353.65364 261.43928,353.80075 250.71428,353.80075 C 239.98928,353.80075 235.60178,353.65364 240.96428,353.47383 z M 310.96428,353.47383 C 316.32678,353.29402 325.10178,353.29402 330.46428,353.47383 C 335.82678,353.65364 331.43928,353.80075 320.71428,353.80075 C 309.98928,353.80075 305.60178,353.65364 310.96428,353.47383 z M 216.91428,352.01933 C 215.47594,350.58099 215.3206,340.38499 216.68245,336.80306 C 217.48695,334.68704 218.12084,334.35026 220.43245,334.81072 C 224.05349,335.53202 228.71428,333.72497 228.71428,331.59974 C 228.71428,330.14073 229.64676,330.00118 236.12304,330.49098 C 240.19785,330.79915 244.43862,331.53662 245.54697,332.12979 C 246.76039,332.77919 252.19755,333.08892 259.21305,332.90828 C 266.52416,332.72004 271.41984,333.01476 272.35631,333.69953 C 274.53173,335.29023 272.56524,335.43308 246.38625,335.58599 C 220.8569,335.73511 221.38164,335.58388 220.16334,343.14306 C 219.84633,345.11001 219.15989,347.76555 218.63791,349.04427 C 218.11594,350.32298 217.94615,351.78548 218.26059,352.29427 C 219.0633,353.59308 218.3404,353.44545 216.91428,352.01933 z M 274.87217,349.21933 C 274.87217,347.84433 275.09915,347.28183 275.37656,347.96933 C 275.65397,348.65683 275.65397,349.78183 275.37656,350.46933 C 275.09915,351.15683 274.87217,350.59433 274.87217,349.21933 z M 249.96428,327.18817 C 247.53389,326.21127 247.27001,325.46882 248.60459,323.36257 C 249.18687,322.44361 249.67958,322.35417 250.1315,323.08539 C 250.49847,323.67917 252.57972,324.64455 254.7565,325.2307 C 256.93328,325.81684 258.71428,326.72907 258.71428,327.25787 C 258.71428,328.45233 252.99601,328.40678 249.96428,327.18817 z M 228.98511,324.61516 C 229.31741,324.28287 230.1799,324.24735 230.90178,324.53622 C 231.69951,324.85544 231.46256,325.0924 230.29761,325.14038 C 229.24345,325.1838 228.65282,324.94746 228.98511,324.61516 z M 335.44525,324.56339 C 336.12228,324.28947 337.47228,324.2728 338.44525,324.52634 C 339.41822,324.77988 338.86428,325.004 337.21428,325.02438 C 335.56428,325.04476 334.76822,324.83732 335.44525,324.56339 z M 234.07161,323.07917 C 235.96383,321.97954 266.95317,275.5917 270.69366,268.25975 C 272.66139,264.40268 274.18291,253.66397 275.02081,237.71933 C 275.30692,232.27472 275.35361,232.44036 275.5252,239.50874 C 275.79076,250.44892 273.90811,265.94192 271.70442,270.95127 C 269.34726,276.30947 247.78635,309.21933 246.63309,309.21933 C 246.15997,309.21933 244.60725,311.68325 243.1826,314.69471 C 240.51459,320.33443 236.66476,324.2423 233.82942,324.18892 C 232.48473,324.1636 232.52529,323.97778 234.07161,323.07917 z M 344.16899,280.71933 C 344.1687,259.26933 344.30089,250.35203 344.46274,260.90311 C 344.62458,271.45419 344.62481,289.00419 344.46325,299.90311 C 344.30169,310.80203 344.16927,302.16933 344.16899,280.71933 z M 311.27515,317.08195 C 311.02061,316.33251 310.67778,314.59433 310.51332,313.21933 C 310.31214,311.5375 309.5056,310.61838 308.04883,310.41086 C 304.64555,309.92606 304.19973,307.21933 307.52316,307.21933 C 311.56244,307.21933 314.71428,309.82029 314.71428,313.15359 C 314.71428,316.36308 312.06052,319.39435 311.27515,317.08195 z M 259.45971,310.50264 C 257.06154,310.13956 256.89156,309.89919 258.14592,308.64484 C 259.30287,307.48788 260.09172,307.43418 262.15048,308.37221 C 263.56057,309.0147 264.71428,309.91813 264.71428,310.37985 C 264.71428,311.23282 264.34044,311.24156 259.45971,310.50264 z M 252.44525,306.56339 C 253.12228,306.28947 254.47228,306.2728 255.44525,306.52634 C 256.41822,306.77988 255.86428,307.004 254.21428,307.02438 C 252.56428,307.04476 251.76822,306.83732 252.44525,306.56339 z "
         id="path5169" />
      <path
         style="fill:#8a94a6"
         d="M 285.71428,344.2974 C 285.71428,337.42751 285.78072,337.24314 288.46428,336.66586 C 289.97678,336.3405 292.78928,335.43369 294.71428,334.65073 C 298.01064,333.30999 329.60677,329.77849 330.48133,330.65305 C 330.70489,330.87661 329.80488,331.76908 328.48131,332.63632 C 326.86645,333.69442 321.65679,334.56475 312.64454,335.28202 C 305.2579,335.86992 297.75935,336.80372 295.98111,337.35713 C 292.2874,338.50665 289.28243,342.24396 288.26168,346.95786 C 286.98441,352.85637 285.71428,351.52986 285.71428,344.2974 z M 221.06564,323.54185 C 220.22523,323.23337 220.27481,322.39559 221.25041,320.41978 C 222.24145,318.4127 222.79806,307.94367 223.41822,279.64609 C 224.3536,236.96564 224.31347,237.18681 231.46161,235.31539 C 233.52558,234.77504 241.73928,234.03589 249.71428,233.67285 C 263.51725,233.04451 269.05231,232.34344 272.96428,230.72801 C 274.04215,230.2829 274.71428,230.45211 274.71428,231.16857 C 274.71428,231.80834 272.64532,233.24699 270.11659,234.36557 C 266.4715,235.97797 262.06869,236.58232 248.86659,237.28247 C 227.07981,238.4379 228.15365,237.38484 227.33357,258.39885 C 227.00473,266.82511 226.45821,283.44365 226.11907,295.32893 C 225.63432,312.31741 225.15088,317.68966 223.85837,320.451 C 222.95412,322.38286 221.69739,323.77374 221.06564,323.54185 z M 325.96428,322.08193 C 325.27678,321.3875 324.71428,320.311 324.71428,319.68972 C 324.71428,319.06843 318.77943,309.59593 311.52571,298.63972 C 304.272,287.68351 297.34214,276.24433 296.12602,273.21933 C 294.41187,268.95551 293.75808,264.65011 293.21721,254.06383 C 292.83348,246.55331 292.81881,239.46533 293.18462,238.31277 C 294.44895,234.32923 297.32535,233.745 318.71428,233.12736 C 329.98928,232.80177 340.22678,232.18679 341.46428,231.76073 C 345.1516,230.49121 344.03527,232.68924 339.96428,234.71421 C 336.84216,236.26719 333.20047,236.64991 318.21428,237 C 296.01733,237.51853 296.71428,237.12335 296.71428,249.19066 C 296.71428,259.58073 298.19576,268.28263 300.85062,273.48658 C 301.92547,275.59346 307.12826,283.93273 312.41236,292.0183 C 325.35703,311.82579 327.90594,316.59535 327.52631,320.29976 C 327.27591,322.74319 326.9674,323.09517 325.96428,322.08193 z "
         id="path5167" />
      <path
         style="fill:#818b9d"
         d="M 286.47692,352.64864 C 286.16305,352.33476 286.53527,350.87226 287.3041,349.39864 C 288.07292,347.92502 288.70473,346.1138 288.70812,345.3737 C 288.72061,342.64476 292.90567,338.24229 296.51451,337.16176 C 298.54938,336.55249 301.78928,336.24418 303.71428,336.47663 C 307.02418,336.8763 306.98075,336.90795 302.91462,337.05929 C 297.13254,337.27451 293.32015,339.42277 291.34913,343.57641 C 290.44996,345.47126 289.71428,347.46098 289.71428,347.99801 C 289.71428,348.53505 289.04424,349.53053 288.22529,350.21019 C 287.40635,350.88986 286.9829,351.84496 287.28431,352.33264 C 287.89594,353.32228 287.36023,353.53195 286.47692,352.64864 z M 219.79323,343.80266 C 219.74981,342.7485 219.98616,342.15787 220.31845,342.49016 C 220.65074,342.82246 220.68626,343.68495 220.39739,344.40683 C 220.07817,345.20456 219.84121,344.96761 219.79323,343.80266 z M 220.74469,340.90359 C 220.684,339.27552 222.81425,336.2197 223.99946,336.23464 C 224.83587,336.24519 224.87616,336.47881 224.12882,336.98464 C 223.53181,337.38872 222.533,338.61933 221.90922,339.71933 C 221.28546,340.81933 220.76141,341.35225 220.74469,340.90359 z M 255.98511,336.61516 C 256.31741,336.28287 257.17991,336.24735 257.90178,336.53622 C 258.69951,336.85544 258.46256,337.0924 257.29761,337.14038 C 256.24345,337.1838 255.65282,336.94746 255.98511,336.61516 z M 226.46428,335.55705 C 227.15178,335.27964 228.27678,335.27964 228.96428,335.55705 C 229.65178,335.83446 229.08928,336.06144 227.71428,336.06144 C 226.33928,336.06144 225.77678,335.83446 226.46428,335.55705 z M 236.96428,335.53 C 237.92678,335.27848 239.50178,335.27848 240.46428,335.53 C 241.42678,335.78153 240.63928,335.98733 238.71428,335.98733 C 236.78928,335.98733 236.00178,335.78153 236.96428,335.53 z M 266.98511,335.61516 C 267.31741,335.28287 268.17991,335.24735 268.90178,335.53622 C 269.69951,335.85544 269.46256,336.0924 268.29761,336.14038 C 267.24345,336.1838 266.65282,335.94746 266.98511,335.61516 z M 316.68899,335.10374 C 323.79401,334.47341 326.86945,333.74139 328.98554,332.1769 C 332.53452,329.55302 335.49583,329.79248 333.47612,332.54002 C 331.98618,334.56688 322.15243,336.22893 312.71428,336.04909 C 308.59323,335.97057 309.58977,335.73355 316.68899,335.10374 z M 246.71428,324.33736 C 246.71428,323.78736 247.16428,323.05925 247.71428,322.71933 C 248.26428,322.37941 248.71428,322.5513 248.71428,323.1013 C 248.71428,323.6513 248.26428,324.37941 247.71428,324.71933 C 247.16428,325.05925 246.71428,324.88736 246.71428,324.33736 z M 222.71428,323.84145 C 222.71428,323.63362 223.34308,321.94612 224.11162,320.09145 C 225.07914,317.75657 225.69844,310.10608 226.12501,295.21933 C 226.46384,283.39433 227.0089,266.82511 227.33626,258.39885 C 228.15264,237.38493 227.07899,238.43795 248.86659,237.28247 C 262.06869,236.58232 266.4715,235.97797 270.11659,234.36557 C 272.64532,233.24699 274.71428,232.70107 274.71428,233.15242 C 274.71428,234.67769 264.76261,238.26691 257.46552,239.37343 C 253.47734,239.97819 246.39817,240.75342 241.73404,241.09616 C 233.38283,241.70985 233.24005,241.76498 232.35047,244.71933 C 231.85365,246.36933 231.0742,248.61933 230.61837,249.71933 C 230.16253,250.81933 229.39373,265.66933 228.90993,282.71933 C 228.11458,310.74852 227.8321,314.1672 225.96238,318.39276 C 224.82503,320.96315 224.15393,323.32565 224.47105,323.64276 C 224.78816,323.95987 224.52261,324.21933 223.88095,324.21933 C 223.23928,324.21933 222.71428,324.04929 222.71428,323.84145 z M 328.96428,323.55705 C 328.27678,323.27964 327.71428,321.69733 327.71428,320.0408 C 327.71428,316.32957 324.73629,310.87595 312.41236,292.0183 C 307.12826,283.93273 301.92547,275.59346 300.85062,273.48658 C 298.19576,268.28263 296.71428,259.58073 296.71428,249.19066 C 296.71428,237.11776 296.01591,237.51296 318.21428,237.02401 C 332.70531,236.70482 336.83816,236.29533 339.41462,234.92343 C 342.97164,233.02941 343.71428,232.86563 343.71428,233.97522 C 343.71428,234.87058 339.07611,237.01584 334.48356,238.24464 C 332.68546,238.72574 324.6911,239.38112 316.71833,239.70102 C 306.23783,240.12154 301.83345,240.67159 300.81833,241.68671 C 299.83605,242.66899 299.41755,245.58835 299.42517,251.40504 C 299.44477,266.36008 300.6669,269.60655 314.03676,290.21933 C 328.03737,311.80455 329.60028,314.73101 330.03023,320.16619 C 330.20657,322.39542 330.32012,324.1838 330.28256,324.14038 C 330.24501,324.09696 329.65178,323.83446 328.96428,323.55705 z M 255.71428,309.81039 C 255.71428,309.62 256.38928,308.90402 257.21428,308.21933 C 258.07887,307.50178 258.71428,307.40459 258.71428,307.9899 C 258.71428,308.5484 258.03928,309.26437 257.21428,309.58096 C 256.38928,309.89754 255.71428,310.00078 255.71428,309.81039 z "
         id="path5165" />
      <path
         style="fill:#7e889b"
         d="M 286.71428,351.84177 C 286.71428,351.63412 287.50178,350.84662 288.46428,350.09177 C 290.05034,348.8479 290.08571,348.88327 288.84184,350.46933 C 287.53547,352.13508 286.71428,352.66481 286.71428,351.84177 z M 297.98511,337.61516 C 298.31741,337.28287 299.17991,337.24735 299.90178,337.53622 C 300.69951,337.85544 300.46256,338.0924 299.29761,338.14038 C 298.24345,338.1838 297.65282,337.94746 297.98511,337.61516 z M 308.97803,336.50175 C 310.49809,336.27189 312.74809,336.27804 313.97803,336.5154 C 315.20797,336.75276 313.96428,336.94082 311.21428,336.93332 C 308.46428,336.92581 307.45797,336.7316 308.97803,336.50175 z M 322.47594,335.51207 C 323.71985,335.27288 325.51985,335.28196 326.47594,335.53225 C 327.43203,335.78254 326.41428,335.97825 324.21428,335.96715 C 322.01428,335.95605 321.23203,335.75126 322.47594,335.51207 z M 331.32518,334.23962 C 332.48617,333.77051 333.70955,332.67404 334.0438,331.80301 C 334.37804,330.93199 335.45313,330.23355 336.4329,330.25093 C 337.87502,330.27651 337.67993,330.75263 335.40852,332.75093 C 333.86535,334.10855 331.84035,335.19081 330.90852,335.15594 C 329.60312,335.10711 329.69875,334.8968 331.32518,334.23962 z M 329.71428,317.87102 C 329.71428,315.04831 326.74907,309.81833 314.03676,290.21933 C 300.6669,269.60655 299.44477,266.36008 299.42517,251.40504 C 299.41755,245.58835 299.83605,242.66899 300.81833,241.68671 C 301.83394,240.6711 306.23275,240.12299 316.71833,239.70551 C 324.6911,239.38808 331.88928,238.95954 332.71428,238.75319 C 333.53928,238.54685 335.33928,238.06152 336.71428,237.67468 L 339.21428,236.97133 L 336.55655,239.09533 C 335.0948,240.26353 333.4073,241.21933 332.80655,241.21933 C 332.2058,241.21933 331.71428,241.67986 331.71428,242.24273 C 331.71428,242.90146 328.9527,243.06357 323.96428,242.69769 C 319.70178,242.38505 313.28928,242.48702 309.71428,242.92429 L 303.21428,243.71933 L 303.29864,251.21933 C 303.51336,270.30977 303.25821,269.62594 318.86977,292.95166 C 323.74072,300.22948 327.64975,306.5295 327.55652,306.9517 C 327.46329,307.3739 328.37646,309.93102 329.58578,312.6342 C 331.10137,316.02198 331.46292,317.87069 330.74941,318.5842 C 330.0359,319.29771 329.71428,319.07612 329.71428,317.87102 z M 227.25351,315.71933 C 227.63314,314.61933 228.35906,299.76933 228.86666,282.71933 C 229.37426,265.66933 230.16253,250.81933 230.61837,249.71933 C 231.0742,248.61933 231.85365,246.36933 232.35047,244.71933 C 233.24005,241.76498 233.38283,241.70985 241.73404,241.09616 C 253.6686,240.21916 264.01246,238.53941 268.16638,236.80379 C 273.42046,234.60849 272.46758,235.80391 266.58878,238.78293 C 263.23059,240.48465 258.83431,241.64638 253.83878,242.15214 C 248.71687,242.6707 244.57313,243.78519 241.21428,245.5476 C 232.52139,250.10883 233.02947,248.85553 232.21589,267.74448 C 231.81377,277.08065 231.13543,285.16933 230.70848,285.71933 C 230.28152,286.26933 229.75345,292.79433 229.53499,300.21933 C 229.27978,308.89321 228.6776,314.43431 227.85053,315.71933 C 226.56327,317.71933 226.56327,317.71933 227.25351,315.71933 z "
         id="path5163" />
      <path
         style="fill:#7b8698"
         d="M 219.79323,346.80266 C 219.74981,345.7485 219.98616,345.15787 220.31845,345.49016 C 220.65074,345.82246 220.68626,346.68495 220.39739,347.40683 C 220.07817,348.20456 219.84121,347.96761 219.79323,346.80266 z M 293.21428,341.21933 C 294.20977,340.11933 295.24926,339.21933 295.52425,339.21933 C 295.79926,339.21933 295.20977,340.11933 294.21428,341.21933 C 293.21879,342.31933 292.17931,343.21933 291.90431,343.21933 C 291.6293,343.21933 292.21879,342.31933 293.21428,341.21933 z M 301.44525,337.56339 C 302.12228,337.28947 303.47228,337.2728 304.44525,337.52634 C 305.41822,337.77988 304.86428,338.004 303.21428,338.02438 C 301.56428,338.04476 300.76822,337.83732 301.44525,337.56339 z M 249.46428,336.5136 C 250.70178,336.27524 252.72678,336.27524 253.96428,336.5136 C 255.20178,336.75195 254.18928,336.94697 251.71428,336.94697 C 249.23928,336.94697 248.22678,336.75195 249.46428,336.5136 z M 262.98511,336.61516 C 263.31741,336.28287 264.17991,336.24735 264.90178,336.53622 C 265.69951,336.85544 265.46256,337.0924 264.29761,337.14038 C 263.24345,337.1838 262.65282,336.94746 262.98511,336.61516 z M 317.46428,336.5136 C 318.70178,336.27524 320.72678,336.27524 321.96428,336.5136 C 323.20178,336.75195 322.18928,336.94697 319.71428,336.94697 C 317.23928,336.94697 316.22678,336.75195 317.46428,336.5136 z M 230.96428,335.53 C 231.92678,335.27848 233.50178,335.27848 234.46428,335.53 C 235.42678,335.78153 234.63928,335.98733 232.71428,335.98733 C 230.78928,335.98733 230.00178,335.78153 230.96428,335.53 z M 327.98511,335.61516 C 328.31741,335.28287 329.17991,335.24735 329.90178,335.53622 C 330.69951,335.85544 330.46256,336.0924 329.29761,336.14038 C 328.24345,336.1838 327.65282,335.94746 327.98511,335.61516 z M 336.46428,332.02489 C 337.67122,330.81794 338.96035,330.13207 339.329,330.50072 C 340.30194,331.47366 337.74766,334.21933 335.86961,334.21933 C 334.5839,334.21933 334.70065,333.78852 336.46428,332.02489 z M 329.71428,323.00694 C 329.71428,322.64536 330.15086,321.20124 330.68446,319.79777 C 331.43325,317.8283 331.16771,316.15904 329.52082,312.48267 C 328.34723,309.86283 327.46329,307.3739 327.55652,306.9517 C 327.64975,306.5295 323.74072,300.22948 318.86977,292.95166 C 303.25821,269.62594 303.51336,270.30977 303.29864,251.21933 L 303.21428,243.71933 L 309.71428,242.92429 C 313.28928,242.48702 319.70178,242.38505 323.96428,242.69769 C 328.35097,243.01944 331.71428,242.87261 331.71428,242.35936 C 331.71428,241.86064 332.50178,241.19166 333.46428,240.87275 C 334.42678,240.55383 336.33928,239.50417 337.71428,238.54015 C 340.1982,236.79867 340.20302,236.80055 338.46428,238.8321 C 337.50178,239.95669 336.71428,241.36638 336.71428,241.96474 C 336.71428,242.5631 336.20479,243.22249 335.58209,243.43006 C 334.76997,243.70077 334.49561,251.71058 334.61158,271.76339 C 334.73362,292.86535 334.43246,301.01314 333.38321,304.99649 C 332.61868,307.89893 332.37348,310.50871 332.83832,310.79599 C 334.06759,311.55572 332.91054,319.10104 331.18756,321.56095 C 330.37725,322.71781 329.71428,323.36851 329.71428,323.00694 z M 227.38473,316.96933 C 228.69077,314.50411 229.20622,310.45947 229.51936,300.21933 C 229.74642,292.79433 230.28152,286.26933 230.70848,285.71933 C 231.13543,285.16933 231.81377,277.08065 232.21589,267.74448 C 233.02947,248.85553 232.52139,250.10883 241.21428,245.5476 C 244.602,243.77004 248.71866,242.67053 253.98089,242.13781 C 259.65542,241.56335 263.29188,240.53015 267.48089,238.30217 C 270.63425,236.62501 272.21333,236.09553 270.98996,237.12556 C 269.76658,238.15558 267.44833,240.10677 265.8383,241.46152 C 264.22827,242.81628 261.31126,247.38706 259.35607,251.61883 C 255.88494,259.13162 248.54115,270.35772 237.96428,284.31942 C 233.35542,290.40321 232.71284,291.82777 232.70247,295.98443 C 232.68407,303.36407 228.12923,320.21933 226.15342,320.21933 C 225.88364,320.21933 226.43773,318.75683 227.38473,316.96933 z M 341.44761,236.09524 C 342.12595,235.41182 342.93285,235.10457 343.24074,235.41246 C 343.54863,235.72035 342.99363,236.27951 342.00741,236.65504 C 340.58221,237.19772 340.46735,237.08286 341.44761,236.09524 z "
         id="path5161" />
      <path
         style="fill:#7a8395"
         d="M 287.71428,352.40079 C 287.71428,351.88568 288.38928,350.90402 289.21428,350.21933 C 290.03928,349.53464 290.71428,348.08454 290.71428,346.99689 C 290.71428,345.90923 292.24428,343.48933 294.11428,341.61933 C 296.73266,339.00095 298.28441,338.25064 300.86428,338.35551 C 303.50126,338.46271 303.68218,338.57798 301.71428,338.89711 C 296.92514,339.67375 294.44909,341.72475 291.96379,346.97379 C 289.57119,352.02704 287.71428,354.39847 287.71428,352.40079 z M 220.85003,344.52209 C 221.79361,339.47138 224.09938,336.18009 226.61927,336.28701 C 227.77231,336.33594 227.62243,336.64127 226.07836,337.38892 C 223.62783,338.57549 221.71428,342.22294 221.71428,345.70737 C 221.71428,347.02403 221.32435,348.34228 220.84777,348.63683 C 220.35969,348.93848 220.36068,347.14148 220.85003,344.52209 z M 309.46428,337.48712 C 311.80178,337.27659 315.62678,337.27659 317.96428,337.48712 C 320.30178,337.69766 318.38928,337.86992 313.71428,337.86992 C 309.03928,337.86992 307.12678,337.69766 309.46428,337.48712 z M 242.96428,336.53 C 243.92678,336.27848 245.50178,336.27848 246.46428,336.53 C 247.42678,336.78153 246.63928,336.98733 244.71428,336.98733 C 242.78928,336.98733 242.00178,336.78153 242.96428,336.53 z M 265.98511,336.61516 C 266.31741,336.28287 267.17991,336.24735 267.90178,336.53622 C 268.69951,336.85544 268.46256,337.0924 267.29761,337.14038 C 266.24345,337.1838 265.65282,336.94746 265.98511,336.61516 z M 325.71428,336.64341 C 332.22913,335.41557 337.36854,333.78289 338.92703,332.44599 C 339.93069,331.58504 341.37972,331.26396 342.42703,331.67046 C 345.39066,332.82075 336.72931,336.17684 329.50307,336.67823 C 326.04423,336.91822 324.33928,336.90255 325.71428,336.64341 z M 224.71428,323.58736 C 224.71428,323.23978 225.65376,321.43529 226.80201,319.57737 C 229.41267,315.35324 232.68682,302.26159 232.70247,295.98443 C 232.71284,291.82777 233.35542,290.40321 237.96428,284.31942 C 248.65101,270.2127 256.00588,258.95046 259.43748,251.4383 C 262.25526,245.26985 264.04928,242.83813 268.36867,239.33242 C 271.34149,236.91962 274.09416,235.26587 274.48571,235.65742 C 274.87726,236.04898 274.38022,236.82678 273.38117,237.38587 C 270.69971,238.88649 267.85895,246.35088 267.08155,253.93881 C 266.40788,260.51419 266.15583,260.97522 249.73663,285.66524 C 240.57291,299.44499 232.53166,312.28461 231.8672,314.19773 C 229.94201,319.7407 224.71428,326.60314 224.71428,323.58736 z M 245.71428,323.40079 C 245.71428,322.19224 247.61148,320.7832 248.30498,321.47669 C 248.55668,321.72839 248.07674,322.50355 247.23845,323.19927 C 246.28806,323.98802 245.71428,324.06389 245.71428,323.40079 z M 330.71428,322.91933 C 330.71428,322.20433 331.1453,321.18831 331.67209,320.66152 C 332.9631,319.37051 333.89921,311.45166 332.83832,310.79599 C 332.37348,310.50871 332.61868,307.89893 333.38321,304.99649 C 334.43191,301.01521 334.73371,292.878 334.6122,271.85966 C 334.51529,255.09416 334.83125,243.745 335.40566,243.35966 C 335.93064,243.00748 336.64065,241.95805 336.98348,241.0276 C 337.7344,238.98953 342.51692,235.68864 343.4161,236.58782 C 343.76777,236.93949 343.11896,238.23794 341.97431,239.47327 C 338.04053,243.71866 337.56707,248.69033 337.79623,283.34552 L 338.01383,316.25417 L 335.36406,319.22809 C 333.90668,320.86375 332.71428,322.65591 332.71428,323.21067 C 332.71428,323.76543 332.26428,324.21933 331.71428,324.21933 C 331.16428,324.21933 330.71428,323.63433 330.71428,322.91933 z M 255.35265,308.71933 C 255.66924,307.89433 256.38521,307.21933 256.94371,307.21933 C 257.52902,307.21933 257.43183,307.85474 256.71428,308.71933 C 256.02959,309.54433 255.31361,310.21933 255.12322,310.21933 C 254.93283,310.21933 255.03607,309.54433 255.35265,308.71933 z M 272.79323,256.80266 C 272.74981,255.7485 272.98616,255.15787 273.31845,255.49016 C 273.65074,255.82246 273.68626,256.68496 273.39739,257.40683 C 273.07817,258.20456 272.84121,257.96761 272.79323,256.80266 z M 273.87217,246.21933 C 273.87217,244.84433 274.09915,244.28183 274.37656,244.96933 C 274.65397,245.65683 274.65397,246.78183 274.37656,247.46933 C 274.09915,248.15683 273.87217,247.59433 273.87217,246.21933 z "
         id="path5159" />
      <path
         style="fill:#737c8b"
         d="M 218.71428,352.41046 C 218.71428,351.96558 219.37497,350.72808 220.18248,349.66046 C 220.98998,348.59284 221.66499,346.728 221.68248,345.51638 C 221.73299,342.01716 223.72893,338.53368 226.37388,337.32857 C 228.05699,336.56169 234.63771,336.41981 247.60673,336.87081 C 260.25715,337.31072 267.42523,337.16714 269.5353,336.43157 C 272.88752,335.26298 274.87267,336.43665 271.95854,337.86425 C 270.99919,338.33421 260.72338,338.71887 249.12339,338.71903 C 226.77523,338.71935 225.46327,338.97409 224.19387,343.55964 C 222.58668,349.36542 218.71428,355.62025 218.71428,352.41046 z M 291.68999,347.46933 C 293.27062,344.30683 295.53706,341.12844 296.72652,340.40625 C 298.03128,339.61404 304.90388,338.72061 314.05172,338.15399 C 329.87374,337.17397 339.27563,335.7381 340.25586,334.15205 C 341.25893,332.52904 343.71428,333.14415 343.71428,335.01844 C 343.71428,338.44468 336.85939,339.89874 314.79378,341.15307 L 299.37328,342.02965 L 296.08132,345.87449 C 294.27075,347.98915 292.77248,350.50683 292.75183,351.46933 C 292.72919,352.52458 291.9405,353.21933 290.7652,353.21933 C 288.94031,353.21933 288.99924,352.85294 291.68999,347.46933 z M 226.71428,323.46677 C 226.71428,322.91537 227.3656,321.92367 228.16166,321.26301 C 228.95771,320.60234 230.40055,317.95974 231.36796,315.39056 C 232.33537,312.82138 240.61287,299.44499 249.76242,285.66524 C 266.14865,260.9866 266.40819,260.51115 267.08155,253.93881 C 268.01083,244.86845 272.21718,235.3889 274.36127,237.53299 C 274.89362,238.06534 273.11704,258.61324 272.11804,263.47806 C 271.80646,264.99536 271.20357,266.02173 270.77827,265.75888 C 269.58598,265.022 266.58293,268.77319 259.20184,280.21933 C 249.96092,294.54957 236.71428,316.19317 236.71428,316.9616 C 236.71428,317.30746 235.70178,318.70449 234.46428,320.06613 C 233.22678,321.42777 232.88928,322.17825 233.71428,321.73388 C 234.79577,321.15135 234.92656,321.24063 234.18303,322.05388 C 232.77525,323.59366 226.71428,324.74025 226.71428,323.46677 z M 332.71428,323.21067 C 332.71428,322.65591 333.90668,320.86375 335.36406,319.22809 L 338.01383,316.25417 L 337.79689,283.44631 C 337.56972,249.09137 338.13218,242.96108 341.81749,239.62593 C 343.67696,237.94313 343.71428,238.71913 343.71428,279.06434 C 343.71428,318.886 343.64948,320.28413 341.71428,322.21933 C 339.62041,324.3132 332.71428,325.0739 332.71428,323.21067 z M 244.74608,322.09177 C 244.76358,321.33693 245.43858,319.84582 246.24608,318.7782 C 247.68942,316.86994 247.71428,316.8721 247.71428,318.90576 C 247.71428,320.04353 247.03928,321.53464 246.21428,322.21933 C 245.00462,323.22326 244.72044,323.19857 244.74608,322.09177 z M 237.22556,317.84245 C 238.17087,316.39974 239.13338,315.21933 239.36447,315.21933 C 240.08785,315.21933 237.75957,319.0733 236.60518,319.78676 C 236.00108,320.16011 236.28026,319.28517 237.22556,317.84245 z M 252.90178,309.15683 C 253.14241,308.43496 253.92991,307.64746 254.65178,307.40683 C 255.40178,307.15683 255.77678,307.53183 255.52678,308.28183 C 255.28616,309.00371 254.49865,309.7912 253.77678,310.03183 C 253.02678,310.28183 252.65178,309.90683 252.90178,309.15683 z M 256.68447,288.27502 C 257.25678,287.20565 258.21929,286.02525 258.82338,285.6519 C 259.42748,285.27855 259.1483,286.15349 258.203,287.59621 C 256.20137,290.65107 255.16488,291.1144 256.68447,288.27502 z M 267.71428,271.21933 C 268.30298,270.11933 269.00965,269.21933 269.28465,269.21933 C 269.55965,269.21933 269.30298,270.11933 268.71428,271.21933 C 268.12558,272.31933 267.41891,273.21933 267.14391,273.21933 C 266.86891,273.21933 267.12558,272.31933 267.71428,271.21933 z "
         id="path5157" />
      <path
         style="fill:#687171"
         d="M 220.74608,351.96933 C 220.76358,351.28183 221.43858,349.84582 222.24608,348.7782 C 223.05359,347.71058 223.71428,346.07293 223.71428,345.13898 C 223.71428,344.20504 224.57621,342.37855 225.62967,341.08011 C 227.5342,338.73271 227.66597,338.71933 248.87967,338.71903 C 260.6137,338.71887 270.93724,338.35799 271.82086,337.91708 C 273.18702,337.23539 273.52945,338.11111 274.10911,343.76883 C 274.57114,348.27851 274.41679,350.87285 273.63008,351.82079 C 272.01581,353.76586 220.69671,353.91001 220.74608,351.96933 z M 292.75183,351.46933 C 292.77248,350.50683 294.27223,347.98739 296.08461,345.87058 L 299.37984,342.02182 L 315.79706,341.0663 C 330.82704,340.19152 334.98771,339.64108 341.46428,337.67062 C 343.64673,337.00662 343.71428,337.19373 343.71428,343.9027 C 343.71428,347.94897 343.21629,351.31732 342.51428,352.01933 C 341.64679,352.88682 334.58095,353.21933 317.01428,353.21933 C 294.52379,353.21933 292.71708,353.08902 292.75183,351.46933 z M 234.48781,319.9604 C 235.71237,318.65692 236.71428,317.30746 236.71428,316.9616 C 236.71428,316.12325 250.56853,293.57909 259.90835,279.21933 C 266.81114,268.60644 270.76601,263.69621 270.67897,265.84689 C 270.58072,268.27438 235.76995,320.95514 233.73781,321.75166 C 232.90067,322.07978 233.22543,321.30414 234.48781,319.9604 z M 243.71428,317.20142 C 243.71428,313.96346 244.34892,312.43084 246.63736,310.14241 C 250.13042,306.64934 254.44004,305.99472 252.71428,309.21933 C 252.12558,310.31933 251.19375,311.21933 250.64356,311.21933 C 250.09336,311.21933 248.79644,313.19476 247.7615,315.60916 C 245.14054,321.72362 243.71428,322.28474 243.71428,317.20142 z "
         id="path5155" />
    </g>
  </g>
</svg>
